<?xml version="1.0" standalone="no"?>
  <!DOCTYPE svg PUBLIC "-//W3C//DTD SVG 1.1//EN" "http://www.w3.org/Graphics/SVG/1.1/DTD/svg11.dtd" >
  <svg>
  <metadata>
  Created by font-carrier
  </metadata>
  <defs>
  <font id="ElizabetaModern" horiz-adv-x="1454" vert-adv-y="1454" >
    <font-face
      
      font-family="Elizabeta Modern"
      
      font-weight="400"
      
      font-stretch="normal"
      
      units-per-em="1000"
      
      ascent="1200"
      
      descent="-233"
      
    />
      <missing-glyph />

      

      
      <glyph glyph-name="uni21" unicode="&#x21;" d="M248 700Q248 618 216 446Q178 246 139 246Q98 246 56 444Q20 615 20 697Q20 759 49 783Q74 804 139 804Q199 804 223.50 781Q248 758 248 700M213 71Q213 41 189.50 20.50Q166 0 136 0Q106 0 83.50 22Q61 44 61 74Q61 104 84.50 124Q108 144 139 144Q169 144 191 122.50Q213 101 213 71Z"  horiz-adv-x="268" vert-adv-y="1000"  />

      
      <glyph glyph-name="uni22" unicode="&#x22;" d="M402 761Q402 706 353 660Q304 613 251 613Q246 618 246 623Q246 625 264 645Q282 664 282 684Q282 686 254 717Q226 748 226 776Q226 807 250 826.50Q274 846 306 846Q402 846 402 761M190 761Q190 706 141 660Q92 613 39 613Q34 618 34 623Q34 625 51 645Q69 664 69 684Q69 687 41 718Q14 749 14 776Q14 807 38 826.50Q62 846 94 846Q190 846 190 761Z"  horiz-adv-x="415" vert-adv-y="1000"  />

      
      <glyph glyph-name="uni23" unicode="&#x23;" d="M542 376L441 376L427 291L529 291L512 181L410 181L377-23L261-23L294 181L222 181L190-23L74-23L107 181L5 181L22 291L124 291L138 376L36 376L53 486L155 486L188 692L303 692L271 486L342 486L375 692L491 692L458 486L560 486L542 376M253 376L240 291L311 291L325 376L253 376Z"  horiz-adv-x="567" vert-adv-y="1000"  />

      
      <glyph glyph-name="uni24" unicode="&#x24;" d="M639 217Q639 109 553 50Q476 0 364 0L347-22Q347-45 344-52Q338-65 319-65Q294-65 288-33Q282-2 278-2Q174-2 104 28Q7 70 7 160Q7 230 53 267Q94 301 167 301Q241 301 255 271Q241 254 229 245Q196 218 190 211Q176 191 176 160Q176 114 212 89Q243 67 292 67Q341 67 370 106Q397 142 397 192Q397 252 345 304Q322 327 244 382L161 438Q120 466 119 468Q22 543 22 646Q22 731 112 772Q178 802 276 802Q281 809 290 844Q296 870 321 870Q344 870 345 836Q346 802 356 799Q377 793 420 793Q431 793 447 793.50Q463 794 485 795Q507 796 522.50 796.50Q538 797 549 797Q568 797 579 749Q587 712 587 685Q587 659 570 633Q557 633 527 660Q486 696 465 709Q421 736 372 736Q334 736 304 722Q268 705 268 669Q268 618 364 551Q407 521 435 501Q463 481 477 471Q529 432 543 420Q639 328 639 217Z"  horiz-adv-x="645" vert-adv-y="1000"  />

      
      <glyph glyph-name="uni25" unicode="&#x25;" d="M356 634Q356 551 318 492Q274 423 195 423Q106 423 61 495Q23 556 23 649Q23 723 71 764Q117 802 193 802Q356 802 356 634M669 770L641 762L68 8Q53 1 49 1L25 3L23 21L341 440Q611 794 633 808Q637 809 644 809Q670 809 670 781Q670 773 669 770M671 214Q671 131 633 72Q589 3 510 3Q421 3 376 75Q338 136 338 229Q338 303 386 344Q432 382 508 382Q671 382 671 214M242 638Q242 765 189 765Q141 765 141 637Q141 580 151 533Q166 460 197 460Q242 460 242 638M557 218Q557 344 504 344Q456 344 456 217Q456 160 466 113Q481 39 512 39Q557 39 557 218Z"  horiz-adv-x="694" vert-adv-y="1000"  />

      
      <glyph glyph-name="uni26" unicode="&#x26;" d="M817 25L812 9L796 0Q718-1 679-1Q640-1 638-1Q578-1 566 3Q549 15 533.50 26.50Q518 38 504 49Q475 38 445 28Q415 18 386 7Q315-17 264-17Q154-17 78 52Q3 122 3 231Q3 355 174 484Q174 493 109 593Q45 693 45 724Q45 793 299 793Q329 793 375 791.50Q421 790 484 788Q506 787 518.50 770.50Q531 754 531 731Q531 694 466 640Q385 572 376 559Q408 488 482 396Q493 383 525 346Q557 309 612 247Q665 289 665 362Q665 395 648 421Q628 451 597 451Q573 451 538 416L512 438Q504 467 504 481Q504 533 538 573Q573 614 622 614Q686 614 722 556Q753 507 753 439Q753 328 658 197L660 178Q745 76 814 35L817 25M393 687Q393 704 379 717Q365 730 348 730Q329 730 315 716Q301 702 301 683Q301 669 313 644Q327 615 336 615Q353 615 373 642Q393 670 393 687M440 124L235 403Q221 405 210 364Q202 330 202 310Q202 225 272 168Q337 113 424 113Q442 113 440 124Z"  horiz-adv-x="820" vert-adv-y="1000"  />

      
      <glyph glyph-name="uni27" unicode="&#x27;" d="M180 759Q180 704 131 658Q82 611 29 611Q24 616 24 621Q24 623 41 643Q59 662 59 682Q59 685 31 716Q4 747 4 774Q4 805 28 824.50Q52 844 84 844Q180 844 180 759Z"  horiz-adv-x="183" vert-adv-y="1000"  />

      
      <glyph glyph-name="uni28" unicode="&#x28;" d="M227 15L218 3Q117 41 55 172Q1 286 1 407Q1 526 55 642Q119 777 218 808L224 803Q214 782 209 774Q108 613 108 417Q108 188 227 15Z"  horiz-adv-x="228" vert-adv-y="1000"  />

      
      <glyph glyph-name="uni29" unicode="&#x29;" d="M267 407Q267 285 214 171Q153 41 50 3L41 15Q160 188 160 417Q160 613 59 774Q48 793 44 802L51 808Q152 776 213 642Q267 526 267 407Z"  horiz-adv-x="309" vert-adv-y="1000"  />

      
      <glyph glyph-name="uni2a" unicode="&#x2a;" d="M403 504Q403 487 384 468Q366 448 350 448Q320 448 287 504Q255 561 237 562Q235 557 233 554Q231 551 230 549Q230 534 254 492Q278 450 278 432Q278 385 219 385Q165 385 165 431Q165 450 190 493Q216 537 216 558L203 568Q192 560 153 499Q123 450 88 450Q75 450 58 476Q42 502 42 518Q42 548 74 559Q87 563 141 566Q183 567 198 579Q196 605 151 605Q143 605 128 603.50Q113 602 105 602Q86 602 65 610Q39 621 39 636Q39 658 55 686Q73 719 92 719Q123 719 153 672Q190 612 202 604Q219 604 219 611Q219 633 189 683Q160 735 160 750Q160 773 189 787Q210 797 239 797Q275 797 275 741Q275 718 254 678Q233 637 233 615L244 610L258 615Q274 641 283 657Q292 673 295 678Q323 718 349 718Q372 718 387 697Q402 676 402 652Q402 624 372 612Q354 605 308 602Q266 599 251 594L249 587L255 576Q263 572 277.50 569.50Q292 567 314 565Q358 562 376 553Q403 539 403 504Z"  horiz-adv-x="441" vert-adv-y="1000"  />

      
      <glyph glyph-name="uni2b" unicode="&#x2b;" d="M336 519L336 387L469 387L469 280L336 280L336 149L229 149L229 280L98 280L98 387L229 387L229 519L336 519Z"  horiz-adv-x="567" vert-adv-y="1000"  />

      
      <glyph glyph-name="uni2c" unicode="&#x2c;" d="M180 62Q180 14 136-36Q92-86 45-86Q29-86 29-73Q29-63 46-43Q64-24 64-14Q64-3 37 23Q10 48 10 73Q10 105 36 124Q62 143 95 143Q111 143 126.50 136.50Q142 130 154 119Q166 108 173 93Q180 78 180 62Z"  horiz-adv-x="190" vert-adv-y="1000"  />

      
      <glyph glyph-name="uni2d" unicode="&#x2d;" d="M504 417Q504 383 483 343Q462 303 433 292Q416 285 361 285Q335 285 283 288Q257 290 237.50 291Q218 292 205 292Q103 292 30 277Q20 288 14 299Q40 407 82 423Q98 429 285 429Q302 429 326.50 430.50Q351 432 383 434Q449 440 482 440Q504 440 504 417Z"  horiz-adv-x="519" vert-adv-y="1000"  />

      
      <glyph glyph-name="uni2e" unicode="&#x2e;" d="M171 79Q171 63 164.50 48.50Q158 34 147 23.50Q136 13 121.50 6.50Q107 0 91 0Q75 0 60 6Q45 12 33.50 22.50Q22 33 15 47Q8 61 8 77Q8 93 14.50 107.50Q21 122 32 132.50Q43 143 57.50 149.50Q72 156 88 156Q104 156 119 150Q134 144 145.50 133.50Q157 123 164 109Q171 95 171 79Z"  horiz-adv-x="178" vert-adv-y="1000"  />

      
      <glyph glyph-name="uni2f" unicode="&#x2f;" d="M274 786Q274 767 174 397Q75 25 66 13Q57 1 32 1Q32 1 27.50 1.50Q23 2 15 3Q13 11 13 11Q13 27 36 119Q67 240 104.50 373Q142 506 187 653Q205 711 217 746.50Q229 782 236 796Q257 802 264 802Q274 802 274 786Z"  horiz-adv-x="286" vert-adv-y="1000"  />

      
      <glyph glyph-name="uni30" unicode="&#x30;" d="M685 472Q685 307 595 165Q490 0 337 0Q181 0 82 168Q0 307 0 478Q0 804 343 804Q509 804 597 720.50Q685 637 685 472M337 75Q406 75 428 220Q431 241 434 289.50Q437 338 439 414Q440 430 440 435Q440 441 440 437Q440 558 431 609Q410 729 340 729Q267 729 245 623Q236 576 236 459Q236 396 239.50 342Q243 288 250 240Q275 75 337 75Z"  horiz-adv-x="684" vert-adv-y="1000"  />

      
      <glyph glyph-name="uni31" unicode="&#x31;" d="M498 23Q498 0 434 0L237 0Q198 0 198 27Q198 27 223 67Q248 107 248 142Q249 250 249 306Q249 362 249 368Q249 604 225 639Q220 646 214 652.50Q208 659 202 666Q185 686 185 692Q185 710 290 757Q391 803 422 803Q443 803 448 752L447 753L447 748L447 143Q447 106 472 66Q498 25 498 23Z"  horiz-adv-x="684" vert-adv-y="1000"  />

      
      <glyph glyph-name="uni32" unicode="&#x32;" d="M622 657Q622 564 530 478Q486 443 464 427Q384 368 344 340Q228 257 195 193Q208 188 226 188Q243 188 268 188.50Q293 189 327 190Q394 193 428 193Q460 193 511 212Q566 232 575 232L601 217Q601 165 572 89Q537 0 495 0L104 0Q72 0 72 65Q72 141 117 215Q127 230 151 261Q175 292 214 340Q247 381 268 407Q289 433 299 444Q379 545 379 618Q379 659 366 689Q350 729 314 729Q285 729 266 701Q246 673 246 645Q246 616 280 582Q314 548 314 541Q314 511 228 511Q165 511 113 556Q61 602 61 664Q61 749 128 783Q176 807 271 807Q279 807 290 807Q302 807 318 806Q334 805 346 805Q358 805 366 805Q488 805 536 787Q622 755 622 657Z"  horiz-adv-x="684" vert-adv-y="1000"  />

      
      <glyph glyph-name="uni33" unicode="&#x33;" d="M599 348Q599 259 515 177Q441 104 329 58Q222 13 136 13Q109 13 94 17L85 31L90 40Q125 62 153.50 79.50Q182 97 204 111Q279 159 313 204Q360 263 360 337Q360 395 323 419Q304 432 255 441Q218 448 218 462Q218 473 299 524Q382 577 386 603Q381 618 259 618Q201 618 158 583Q139 567 132 566L111 577Q110 591 110 600Q110 609 110 611Q110 661 130 723Q156 800 195 800L562 800L592 778Q587 707 543 642Q515 600 460 549Q416 508 414 501L417 499Q491 496 541 459Q599 417 599 348Z"  horiz-adv-x="684" vert-adv-y="1000"  />

      
      <glyph glyph-name="uni34" unicode="&#x34;" d="M623 344Q623 314 607.50 290Q592 266 564 261Q528 253 528 202Q528 207 529 194Q530 181 532 151Q534 101 556 68Q581 31 581 27Q581 16 565.50 8Q550 0 537 0L339 0Q281 0 281 28L282 29L284 33Q329 130 329 198Q329 265 241 265Q231 265 217.50 264Q204 263 185 261Q147 258 129 258Q60 258 60 305Q60 398 118 492Q146 540 225 632Q283 699 283 725Q283 733 276.50 749Q270 765 270 774Q270 802 330 802L590 802Q617 802 617 775Q617 717 537 661Q519 647 405 586Q313 536 276 514Q157 443 157 368Q157 341 180 341L306 341Q330 341 330 395L330 463Q330 501 410 548Q465 581 527 602L534 594Q534 580 533.50 559Q533 538 532 509Q531 481 531 460Q531 439 531 425L531 381Q531 358 557 358Q564 358 577.50 360Q591 362 598 362Q623 362 623 344Z"  horiz-adv-x="684" vert-adv-y="1000"  />

      
      <glyph glyph-name="uni35" unicode="&#x35;" d="M576 783Q576 667 502 632Q463 613 331 613Q280 613 259 605Q225 592 225 547Q225 520 233 512Q262 514 283 515Q304 516 318 516Q415 516 479 481Q557 437 557 347Q557 269 482 185Q415 109 313 56Q212 3 137 3Q124 3 107 23Q109 35 167 69Q236 112 270 151Q325 212 325 292Q325 381 273 412Q244 422 219.50 429Q195 436 175 440Q123 450 123 487Q123 546 144 653Q170 782 199 789Q242 801 319 801Q345 801 401 798Q429 797 449 796.50Q469 796 483 796Q494 796 514 801.50Q534 807 545 807Q576 807 576 783Z"  horiz-adv-x="684" vert-adv-y="1000"  />

      
      <glyph glyph-name="uni36" unicode="&#x36;" d="M621 279Q621 168 552 86Q480 0 371 0Q223 0 138 132Q63 247 63 402Q63 568 194 687Q321 802 489 801L495 801L514 789Q512 781 487 756Q479 748 454 726Q380 661 343 594Q283 487 283 348Q283 264 299 190Q324 75 374 75Q454 75 454 195Q454 238 437 280Q415 332 377 332Q363 332 347 316Q330 300 321 299L303 311Q303 385 345 438Q390 496 462 496Q540 496 584 424Q621 363 621 279Z"  horiz-adv-x="684" vert-adv-y="1000"  />

      
      <glyph glyph-name="uni37" unicode="&#x37;" d="M601 728Q601 674 543 580Q515 535 497 505Q479 475 470 459Q455 433 446 418.50Q437 404 435 399Q377 283 377 168Q377 158 378 142.50Q379 127 381 107Q383 87 384.50 71.50Q386 56 386 46Q386 11 362 2Q350-1 308-1L290-1Q284-1 275-1.50Q266-2 256-2.50Q246-3 237-3.50Q228-4 222-4Q96-4 96 54Q96 160 187 282Q235 348 358 469Q452 561 456 592L444 598Q427 596 410 595Q393 594 376 594Q365 594 349.50 594.50Q334 595 313 596Q272 599 251 599Q226 599 181 583Q134 568 113 568Q83 568 83 602Q83 654 106 717Q136 793 179 793L570 792Q601 792 601 728Z"  horiz-adv-x="684" vert-adv-y="1000"  />

      
      <glyph glyph-name="uni38" unicode="&#x38;" d="M631 200Q631-1 355-1Q53-1 53 182Q53 233 74 272Q90 303 132 345Q146 359 165 379Q184 399 210 425L208 436Q143 496 118 531Q73 591 73 650Q73 804 340 804Q426 804 489 778Q573 743 573 667Q573 609 533 566Q524 555 447 494L445 481Q493 436 523.50 405Q554 374 568 357Q631 277 631 200M413 657Q413 683 393 697.50Q373 712 346 712Q338 712 329.50 707Q321 702 314 694.50Q307 687 302.50 678.50Q298 670 298 662Q298 640 321 606Q345 573 367 573Q413 607 413 657M393 176Q393 215 368 264Q339 320 307 323Q248 279 248 194Q248 80 320 80Q357 80 376 111Q393 137 393 176Z"  horiz-adv-x="684" vert-adv-y="1000"  />

      
      <glyph glyph-name="uni39" unicode="&#x39;" d="M636 519Q636 314 478 156Q326 4 131 4Q127 4 115 4Q103 4 83 5L72 24L91 42Q239 77 325 212Q406 336 406 494Q406 570 388 630Q363 718 306 718Q281 718 257 694Q234 671 234 646Q234 583 248 535Q267 463 313 463Q323 463 343 472Q362 482 370 482Q383 482 383 450Q383 414 335 381Q288 348 250 348Q203 348 165.50 363Q128 378 102 405Q76 432 62 470.50Q48 509 48 557Q48 685 130 748Q203 805 335 805Q480 805 556 735Q636 661 636 519Z"  horiz-adv-x="684" vert-adv-y="1000"  />

      
      <glyph glyph-name="uni3a" unicode="&#x3a;" d="M174 494Q174 462 150 439Q126 416 94 416Q61 416 36 438Q11 460 11 493Q11 525 35 548Q59 571 91 571Q124 571 149 549Q174 527 174 494M174 79Q174 63 167.50 48.50Q161 34 150 23.50Q139 13 124.50 6.50Q110 0 94 0Q61 0 36 22Q11 44 11 77Q11 93 17.50 107.50Q24 122 35 132.50Q46 143 60.50 149.50Q75 156 91 156Q107 156 122 150Q137 144 148.50 133.50Q160 123 167 109Q174 95 174 79Z"  horiz-adv-x="186" vert-adv-y="1000"  />

      
      <glyph glyph-name="uni3b" unicode="&#x3b;" d="M182 494Q182 462 158.50 439Q135 416 103 416Q69 416 44 438Q19 460 19 493Q19 525 43 548Q67 571 100 571Q116 571 131 565Q146 559 157 548.50Q168 538 175 524Q182 510 182 494M191 62Q191 14 147-36Q103-86 56-86Q40-86 40-73Q40-66 57-44Q74-24 74-14Q74-3 47 23Q20 48 20 73Q20 105 46 124Q72 143 105 143Q139 143 164 118Q191 94 191 62Z"  horiz-adv-x="210" vert-adv-y="1000"  />

      
      <glyph glyph-name="uni3c" unicode="&#x3c;" d="M466 582L466 496L125 337L466 179L466 93L33 300L33 375L466 582Z"  horiz-adv-x="500" vert-adv-y="1000"  />

      
      <glyph glyph-name="uni3d" unicode="&#x3d;" d="M89 447L478 447L478 350L89 350L89 447M89 316L478 316L478 219L89 219L89 316Z"  horiz-adv-x="567" vert-adv-y="1000"  />

      
      <glyph glyph-name="uni3e" unicode="&#x3e;" d="M34 93L34 179L375 337L34 496L34 582L467 375L467 300L34 93Z"  horiz-adv-x="500" vert-adv-y="1000"  />

      
      <glyph glyph-name="uni3f" unicode="&#x3f;" d="M557 669Q557 594 508 533Q481 498 401 432Q361 400 334.50 374.50Q308 349 295 330Q283 301 275.50 279Q268 257 266 241Q258 239 258 239Q240 239 231 274Q225 298 225 325Q225 380 275 492Q325 606 325 648Q325 734 256 734Q227 734 210 705Q196 680 196 650Q196 612 227 578Q258 544 258 541Q231 514 177 514Q108 514 55 563Q1 612 1 681Q1 803 253 803L336 803Q439 803 484 786Q557 758 557 669M339 71Q339 0 256 0Q177 0 177 71Q177 101 197.50 122.50Q218 144 248 144Q339 144 339 71Z"  horiz-adv-x="558" vert-adv-y="1000"  />

      
      <glyph glyph-name="uni40" unicode="&#x40;" d="M460 100Q417 100 368 157Q333 138 286 91Q170 126 170 212Q170 281 237 345Q253 343 263.50 341.50Q274 340 280 340Q315 340 347 357Q347 385 346 388Q342 404 323 404Q312 404 279 380Q247 357 233 357Q221 357 207 370.50Q193 384 193 396Q193 423 209 433Q216 437 219 437Q261 437 291 448Q296 450 312.50 459Q329 468 357 485Q370 486 376.50 486.50Q383 487 384 487Q397 487 405 479Q415 456 435 449Q454 421 454 392L454 193Q454 177 476 177Q500 177 517 218Q530 250 530 281Q530 369 476 449Q409 549 298 549Q218 549 163 474Q112 405 112 324Q112 231 162 154Q214 73 301 46Q357 29 440 29Q382-1 366-8Q306-34 287-34Q277-34 250-28Q157-5 89 73Q7 167 7 284Q7 434 115 536Q210 625 317 625Q448 625 535 533Q623 442 623 311Q623 221 587 166Q545 100 460 100M347 304Q330 294 318 287.50Q306 281 301 276Q277 256 277 230Q277 217 285 199Q294 180 308 180Q324 180 347 198L347 304Z"  horiz-adv-x="633" vert-adv-y="1000"  />

      
      <glyph glyph-name="uni41" unicode="&#x41;" d="M782 80Q782 19 729 4Q716 0 622 0Q596 0 572 1.50Q548 3 525 7L515 26L515 28Q514 38 536 66Q559 95 559 106Q559 204 498 388L488 391Q432 304 383 303L360 318Q361 329 362 337Q363 345 364 351Q365 350 364 349Q364 376 342.50 390Q321 404 293 404Q206 404 159 291Q124 204 124 101Q124 86 141 58Q159 31 159 27Q159 0 81 0Q46 0 33 13.50Q20 27 20 62Q20 138 77 303Q86 329 109 389Q132 449 169 545Q221 677 221 702Q221 711 207 736Q193 761 193 769Q193 792 234 795.50Q275 799 367 799Q382 799 404 799Q427 799 456 798Q485 797 507 797Q530 797 544 797Q568 797 586 797Q604 797 615 798L636 782Q636 769 624 745Q613 721 613 709Q613 672 657 543Q730 332 735 313Q782 160 782 80M437 560Q437 586 408 636Q376 689 354 689Q323 689 277 611Q233 537 233 503Q233 493 241 495Q301 559 358 559Q369 559 393 551Q419 543 429 543Q437 543 437 560Z"  horiz-adv-x="801" vert-adv-y="1000"  />

      
      <glyph glyph-name="uni42" unicode="&#x42;" d="M734 196Q734 102 666 49Q605 0 508 0L102 0L80 20Q76 63 74.50 119Q73 175 73 245Q73 315 76 456Q79 597 79 667Q79 693 39 776L41 786L58 797Q125 794 200 794L544 797Q614 798 658.50 758.50Q703 719 703 650Q703 581 656 528Q644 514 618 493Q592 472 552 443Q566 432 579 422.50Q592 413 605 405Q734 321 734 196M467 602Q467 645 450 677Q431 717 391 717Q288 717 288 561Q288 519 298 513Q308 508 322.50 501.50Q337 495 357 488Q399 474 415 474Q438 474 455 527Q467 567 467 602M499 218Q499 292 434 357Q369 422 294 422Q283 422 283 367L283 190Q283 146 301 112Q323 70 363 70Q422 70 460 114Q499 157 499 218Z"  horiz-adv-x="773" vert-adv-y="1000"  />

      
      <glyph glyph-name="uni43" unicode="&#x43;" d="M684 688Q684 616 632 560Q579 504 510 504Q484 504 454 517Q416 532 416 551Q416 567 436 578Q453 588 462.50 593Q472 598 474 599Q494 616 494 646Q494 664 486.50 679.50Q479 695 466 706Q453 717 436 723Q419 729 400 729Q319 729 282 635Q256 566 256 472Q256 298 316 195Q391 65 553 65Q568 65 598 68Q614 70 625 71Q636 72 644 72Q649 72 658.50 65Q668 58 668 53Q668 27 568 12Q494 0 439 0Q244 0 125 146Q14 282 14 482Q14 628 78 708Q149 797 289 797L564 797Q684 797 684 688Z"  horiz-adv-x="697" vert-adv-y="1000"  />

      
      <glyph glyph-name="uni44" unicode="&#x44;" d="M768 485Q768 284 648 146Q523 2 325 0L110-1Q78-1 66 31Q59 47 57 90Q56 103 55.50 116.50Q55 130 55 144Q55 202 61 321Q67 439 67 498Q67 696 18 766Q21 791 43 797Q53 799 86 799L559 799Q664 799 721 689Q768 600 768 485M525 452Q525 554 501 628Q465 736 385 736Q329 736 301 691Q276 653 276 594L273 165Q273 138 284 105Q297 65 320 65Q407 65 472 221Q525 350 525 452Z"  horiz-adv-x="786" vert-adv-y="1000"  />

      
      <glyph glyph-name="uni45" unicode="&#x45;" d="M649 211Q649 157 620 85Q586 0 541 0L65 0Q19 0 19 32Q19 44 35 66Q57 96 59 100Q73 133 73 176L72 633Q72 677 59 702Q58 704 52.50 711.50Q47 719 37 733Q21 753 21 765Q21 793 73 793Q116 793 179.50 794.50Q243 796 329 798Q500 804 585 804Q607 804 619 750Q623 731 625 713Q627 695 627 677Q627 631 602 631Q591 631 565 656Q531 689 505 703Q461 728 404 728Q324 728 299 674Q283 641 283 549Q283 528 293 518Q309 563 356 590Q399 615 450 615Q492 615 526 575Q561 535 561 494Q561 466 551 442Q541 418 523.50 401Q506 384 482 374Q458 364 430 364L425 375Q436 400 436 414Q436 430 418 450Q401 470 385 470Q277 470 277 254Q277 164 284 140Q300 79 366 79Q435 79 496 122Q531 147 577 202Q613 245 623 245Q631 245 640 232Q649 219 649 211Z"  horiz-adv-x="667" vert-adv-y="1000"  />

      
      <glyph glyph-name="uni46" unicode="&#x46;" d="M625 664Q625 625 595 625Q583 625 561 650Q533 680 506 695Q460 720 394 720Q313 720 288 665Q272 632 272 538Q272 520 280 506Q285 506 306 534Q332 569 355 586Q390 614 432 614Q485 614 523 576Q560 539 560 484Q560 440 524 395Q489 350 446 350L420 370Q420 377 426 391.50Q432 406 432 415Q432 435 415.50 449Q399 463 379 463Q272 463 272 283L272 145Q272 105 295 65Q318 25 318 25Q299 0 285 0L62 0Q49 0 35 7Q16 14 16 25Q16 26 39 69Q62 112 62 145L62 603Q62 657 50 692Q47 700 30 729Q16 754 16 764Q16 792 250 792Q260 792 275 791.50Q290 791 310 790Q330 789 345 789Q361 789 371 789Q404 789 470 795Q536 801 569 801Q599 801 614 745Q625 704 625 664Z"  horiz-adv-x="640" vert-adv-y="1000"  />

      
      <glyph glyph-name="uni47" unicode="&#x47;" d="M703 53Q703 25 602 10Q567 5 536 2.50Q505 0 476 0Q255 0 136 122Q17 244 17 466Q17 586 65 681Q125 799 233 799L529 798Q569 797 590 797Q612 797 614 796Q641 789 656 741Q669 705 669 668Q669 625 647 625Q631 625 594 656Q546 695 539 699Q492 725 430 725Q254 725 254 450Q254 339 297 226Q353 80 441 80Q478 80 478 194Q478 355 434 457Q419 491 419 493Q419 525 515 525Q604 525 638 503Q684 475 684 391Q684 364 681 309Q678 253 678 227Q678 197 690 139Q703 84 703 53Z"  horiz-adv-x="720" vert-adv-y="1000"  />

      
      <glyph glyph-name="uni48" unicode="&#x48;" d="M748 20Q748 0 670 0L673 0L572 0L508 0Q458 0 458 19Q458 19 478 64Q498 109 498 140L498 506L477 519Q407 519 342 458Q277 398 277 330L277 171Q277 142 296 92Q315 42 315 23Q315 15 303.50 7.50Q292 0 284 0L83 0Q25 0 25 26Q25 12 27 12Q31 12 38 40Q40 50 43 63Q46 76 50 93Q63 157 69.50 198.50Q76 240 76 260L76 487Q76 647 56 716Q55 722 39 747Q25 772 25 777Q25 786 35.50 794.50Q46 803 55 803L287 803Q316 803 316 773Q316 764 298 733Q281 702 281 680L281 582L296 563Q330 564 407 584Q494 606 494 622Q494 654 473 710Q452 765 452 776Q452 804 498 804L687 804Q746 804 746 775Q746 783 744 787Q743 786 742.50 785Q742 784 741 783Q733 766 720 699Q706 631 706 613L706 203Q706 164 727 97Q748 29 748 20Z"  horiz-adv-x="772" vert-adv-y="1000"  />

      
      <glyph glyph-name="uni49" unicode="&#x49;" d="M331 25Q331 17 317.50 8.50Q304 0 295 0L59 0Q49 0 35 9Q21 18 21 27Q36 66 44 87Q52 108 53 111Q69 159 69 199L69 645Q69 688 46 732Q23 776 23 780Q23 804 67 804L287 804Q329 804 329 775Q329 771 305 731Q282 690 282 645L281 197Q281 148 294 109Q297 98 315 64Q331 33 331 25Z"  horiz-adv-x="351" vert-adv-y="1000"  />

      
      <glyph glyph-name="uni4a" unicode="&#x4a;" d="M376 780Q376 776 360 750Q341 716 340 714Q328 685 328 631Q328 608 328 575Q328 542 329 497Q330 452 330.50 419Q331 386 331 363Q331 306 328 261Q320 159 225 47Q129-66 30-85L18-81L14-72Q24-52 32-36Q40-20 48-9Q129 108 129 261L129 625Q129 704 96 754Q84 772 84 781Q84 804 122 804L341 804Q376 804 376 780Z"  horiz-adv-x="391" vert-adv-y="1000"  />

      
      <glyph glyph-name="uni4b" unicode="&#x4b;" d="M740 5L725-6Q625-6 459 165Q425 201 380 267L311 375Q302 389 296 389Q273 389 273 289Q273 166 288 100Q289 92 305 60Q320 31 320 23Q320 16 311.50 8Q303 0 296 0L102 0Q63 0 60 42Q59 55 58.50 75.50Q58 96 58 124Q58 171 61 264Q64 358 64 405Q64 502 63.50 557.50Q63 613 62 630Q61 647 54.50 669Q48 691 37 717Q15 770 15 773Q15 799 59 799L275 799Q318 799 318 773Q287 715 286 713Q273 683 273 646L273 495Q273 468 285 468Q325 468 416 554Q507 641 507 682Q507 704 485 735Q464 766 464 775Q464 786 476.50 793Q489 800 501 800L671 800Q681 800 690 792.50Q699 785 699 775Q699 733 647 677Q636 665 611.50 642.50Q587 620 549 586Q497 540 497 525Q497 447 591 259Q633 177 669.50 113.50Q706 50 740 5Z"  horiz-adv-x="755" vert-adv-y="1000"  />

      
      <glyph glyph-name="uni4c" unicode="&#x4c;" d="M649 119Q649 93 640 71.50Q631 50 615 34Q599 18 577 9Q555 0 530 0L56 0Q17 0 17 21Q17 35 36 86Q56 141 56 172Q56 243 53 383Q50 524 50 595Q50 641 35 689Q32 697 23 719.50Q14 742 0 778Q0 804 51 804L269 804Q309 804 309 779Q309 779 284 739Q260 698 260 666L259 287Q259 63 362 63Q396 63 421.50 86.50Q447 110 447 144Q447 173 406 211Q365 249 365 249Q365 272 403 289Q433 302 463 302Q533 302 591 246Q649 191 649 119Z"  horiz-adv-x="650" vert-adv-y="1000"  />

      
      <glyph glyph-name="uni4d" unicode="&#x4d;" d="M843 95Q843 40 819.50 20Q796 0 739 0L605 0L567 27Q567 40 591 69Q616 98 616 127Q616 199 598 352Q579 526 558 556Q537 542 502 461Q476 403 460 369Q444 335 438 324Q401 254 368 254Q330 254 276 359Q259 391 246.50 415Q234 439 226 455Q183 537 160 559Q144 533 137 334Q131 197 131 90Q131 78 150 55Q170 32 170 20Q170-2 102-2Q58-2 41 12.50Q24 27 24 70Q24 121 32 195Q40 269 56 369Q89 568 89 668Q89 696 66 734Q44 771 44 782Q44 806 77 806L212 806Q264 806 311 740Q319 726 324.50 715.50Q330 705 334 697Q362 643 376 616Q410 550 437 550Q456 550 488 618L525 699Q544 740 546 743Q587 811 628 811L768 811Q806 811 806 787Q806 781 786 749Q767 718 767 690Q767 594 805 392Q843 190 843 95Z"  horiz-adv-x="866" vert-adv-y="1000"  />

      
      <glyph glyph-name="uni4e" unicode="&#x4e;" d="M736 509L736 330Q736 320 736 306Q736 293 737 274Q738 256 738.50 242.50Q739 229 739 219Q739-2 655-2Q602-2 602 25Q602 37 621 65Q641 94 641 108Q641 158 426 373Q221 578 155 611Q144 595 144 447Q144 216 166 128Q170 113 196 68Q222 24 222 20Q222-4 155-4Q56-4 56 152Q56 146 57 167.50Q58 189 60 240Q65 387 66 457Q70 526 71.50 575Q73 624 73 653Q73 700 41 730Q10 760 10 775Q10 803 55 803L210 803Q260 803 351 726Q372 707 411.50 668Q451 629 510 569Q558 520 591.50 490Q625 460 645 447Q653 453 653 474Q653 637 618 709Q616 712 609.50 720.50Q603 729 592 743Q573 768 573 777Q573 805 649 805Q740 805 740 627Q740 617 739.50 602.50Q739 588 738 568Q737 548 736.50 533.50Q736 519 736 509Z"  horiz-adv-x="745" vert-adv-y="1000"  />

      
      <glyph glyph-name="uni4f" unicode="&#x4f;" d="M782 480Q782 293 688 156Q581 0 403 0Q228 0 119 144Q19 274 19 455Q19 655 113 734Q198 804 403 804Q602 804 685 744Q782 674 782 480M543 444Q543 563 525 628Q493 739 404 739Q254 739 254 451Q254 385 259.50 329Q265 273 276 227Q312 74 401 74Q479 74 517 226Q530 278 536.50 332Q543 386 543 444Z"  horiz-adv-x="800" vert-adv-y="1000"  />

      
      <glyph glyph-name="uni50" unicode="&#x50;" d="M704 633Q704 526 609 455Q523 389 412 389Q382 389 345 398Q295 410 295 428Q295 445 319 447L316 446L356 446Q405 446 434 485Q460 520 460 572Q460 628 443 670Q420 726 371 726Q302 726 277 660Q261 619 261 535L262 308Q262 263 262.50 236Q263 209 264 198Q266 161 271 133.50Q276 106 283 89Q284 85 303 55Q319 33 319 23L290 0L110 0Q73 0 63 34Q57 53 57 98L57 612Q57 669 44 698Q43 700 37.50 710Q32 720 22 737Q6 763 6 773Q6 794 45 796Q193 800 269 802Q326 803 381 803.50Q436 804 493 804Q704 804 704 633Z"  horiz-adv-x="747" vert-adv-y="1000"  />

      
      <glyph glyph-name="uni51" unicode="&#x51;" d="M801 486Q801 340 757 238Q709 130 598 43Q600 13 631-18Q664-51 693-51Q705-51 722-36Q741-20 751-19Q770-38 770-77Q770-119 721-144Q680-167 635-167Q518-167 477-48Q460 0 456 0L428 0Q238 0 134 140Q38 270 38 467Q38 667 131 741Q212 804 419 804Q618 804 700 746Q801 675 801 486M559 435Q559 742 424 742Q326 742 292 619Q273 552 273 416Q273 256 325 146Q331 151 335.50 156Q340 161 343 165Q353 176 360 183.50Q367 191 372 193Q386 201 413 201Q442 201 466 186Q484 175 495.50 168.50Q507 162 512 160Q534 203 548 294Q553 332 556 367Q559 402 559 435M443 97Q443 106 424 119Q405 133 397 133Q386 133 377 125Q368 117 368 106Q368 92 384 83Q397 76 412 76Q443 76 443 97Z"  horiz-adv-x="819" vert-adv-y="1000"  />

      
      <glyph glyph-name="uni52" unicode="&#x52;" d="M811 26L791 12Q707 12 585 98Q494 162 424 244Q332 351 332 431Q332 484 371 484Q376 484 384 482Q392 480 400.50 477Q409 474 417 472Q425 470 430 470Q467 470 489 507Q508 538 508 577Q508 634 482 677Q452 726 397 726Q328 726 303 657Q288 615 288 529Q288 434 292.50 340.50Q297 247 305 153Q310 113 333 72Q357 30 357 23Q357 0 310 0L201 0Q137 0 123 7Q93 20 93 71Q93 121 90 253Q86 390 83.50 476.50Q81 563 79 600Q78 629 55 691Q44 720 39 736Q34 752 33 754L66 781Q106 781 165.50 784Q225 787 306 792Q466 804 547 804Q757 804 757 649Q757 588 710 535Q688 510 623 461Q576 425 576 405Q576 351 642 252Q657 230 684 195.50Q711 161 749 113Q808 39 811 26Z"  horiz-adv-x="844" vert-adv-y="1000"  />

      
      <glyph glyph-name="uni53" unicode="&#x53;" d="M608 225Q608 0 294 0Q180 0 108 28Q0 68 0 160Q0 232 49 271Q94 307 168 307Q223 307 248 276Q248 265 226 252Q195 234 186 224Q164 202 164 167Q164 124 201 99Q234 75 278 75Q325 75 353 112Q382 150 382 196Q382 258 320 314Q312 321 284 341.50Q256 362 207 396Q155 431 128.50 449Q102 467 100 469Q1 539 1 619Q1 722 68 765Q121 799 231 799Q259 799 316 796Q373 793 401 793Q419 793 455 799Q492 805 510 805Q536 805 550 743Q560 702 560 661Q560 655 553.50 644.50Q547 634 542 634Q525 634 499 660Q463 697 444 709Q403 735 351 735Q314 735 284 721Q248 704 248 669Q248 626 341 559Q383 529 411.50 508Q440 487 457 474Q500 439 515 425Q608 330 608 225Z"  horiz-adv-x="608" vert-adv-y="1000"  />

      
      <glyph glyph-name="uni54" unicode="&#x54;" d="M705 630Q705 566 682 566Q671 566 650 601Q622 648 601 667Q561 702 509 702Q469 702 469 643L469 173Q469 124 513 41L518 31L521 27Q522 26 522 25Q522 16 508 8Q494 0 484 0L251 0Q228 0 217 17Q223 33 229 47Q235 61 240 74Q264 129 264 175L263 643Q263 654 243 677Q223 700 211 700Q161 700 126 665Q113 652 80 601Q57 566 38 566Q14 566 14 630Q14 680 34 731Q59 795 101 795L631 795Q666 795 688 728Q705 674 705 630Z"  horiz-adv-x="719" vert-adv-y="1000"  />

      
      <glyph glyph-name="uni55" unicode="&#x55;" d="M807 40L792 21Q778 20 724 17Q670 14 576 8Q510 4 456 2Q402 0 359 0Q217 0 128 82Q34 166 34 306Q34 373 67 501Q101 631 101 684Q101 724 72 759L91 794Q123 798 169.50 800Q216 802 279 802L309 802L338 781Q338 719 309 589Q280 459 280 397Q280 67 470 67Q546 67 546 203Q546 211 545.50 222.50Q545 234 544 250Q543 266 543 277Q543 289 543 297Q543 345 543 384Q543 423 542 454Q536 693 465 759Q465 807 552 807Q562 807 581.50 806Q601 805 610 805L707 804Q750 779 750 605Q750 591 749.50 570Q749 549 748 520Q747 491 746.50 470Q746 449 746 435Q746 273 749 231Q759 87 805 48L807 40Z"  horiz-adv-x="841" vert-adv-y="1000"  />

      
      <glyph glyph-name="uni56" unicode="&#x56;" d="M717 769Q717 683 617 390Q512 81 469 24Q451 0 385 0L323 0Q294 2 275 32Q253 77 237 110.50Q221 144 211 169Q192 214 170.50 267.50Q149 321 124 386Q18 665 18 739Q18 806 99 806L125 806Q133 805 139 805Q146 805 151 805L238 805Q307 805 307 775Q307 763 284 737Q262 712 262 697Q262 618 329 429Q381 279 437 161L443 158L453 164Q579 432 579 638Q579 676 572 693Q566 712 542 741Q522 765 515 780L515 782Q514 794 533 801Q550 806 562 806L627 806Q717 806 717 769Z"  horiz-adv-x="735" vert-adv-y="1000"  />

      
      <glyph glyph-name="uni57" unicode="&#x57;" d="M949 711Q949 598 882 363Q847 239 818 156.50Q789 74 764 31Q748 0 685 0Q611 0 581 10Q562 34 537 117Q527 146 518 176Q509 206 500 236L488 242Q475 210 465.50 185Q456 160 451 143Q429 76 410 48Q377 0 324 0L255 0Q218 1 158 171Q133 242 110 325.50Q87 409 64 507Q21 688 21 746Q21 809 126 809L123 809Q168 806 193 806L276 803L300 773Q298 759 275 725Q252 691 252 675Q252 572 295 424Q311 370 329 308Q347 246 368 175L381 167Q398 200 423 277Q452 362 452 385Q452 446 421 560Q390 674 390 735Q390 810 471 810Q467 810 484.50 809Q502 808 540 806Q617 803 641 797Q659 776 660 754Q622 725 622 670Q622 569 659 425Q666 399 683 338.50Q700 278 728 183L739 173L744 175Q780 265 804 375Q830 496 830 582Q830 639 810 687Q805 700 795.50 715Q786 730 773 747Q753 775 753 781Q753 781 753.50 784.50Q754 788 755 795Q795 807 883 807Q926 807 940 778Q949 760 949 711Z"  horiz-adv-x="970" vert-adv-y="1000"  />

      
      <glyph glyph-name="uni58" unicode="&#x58;" d="M792 49L778 14Q761 0 702 0L511 0L486 17L482 32Q482 42 496 62Q511 81 511 90Q511 151 328 330L314 328Q292 309 269.50 283Q247 257 223 224Q166 146 166 107Q166 92 185 67Q204 42 204 30Q204-1 128-1Q124-1 104-1Q84-1 46 0L25 22Q25 88 79 169Q89 184 114 215.50Q139 247 180 295Q200 318 222 344Q244 370 268 398Q263 411 236 444Q229 452 219.50 463Q210 474 198 487Q20 680 20 750Q20 780 46 801Q130 804 299 804L316 781Q316 767 306 746Q297 723 297 712Q297 690 352 626Q407 563 428 561Q460 571 519 633Q578 695 578 726Q578 732 575.50 740.50Q573 749 570 758Q567 767 564.50 775.50Q562 784 562 790L579 804Q608 806 630 807Q652 808 668 808Q711 808 738 801Q754 783 756 762Q742 740 705.50 704Q669 668 609 616Q498 521 484 486L659 272Q775 131 792 49Z"  horiz-adv-x="812" vert-adv-y="1000"  />

      
      <glyph glyph-name="uni59" unicode="&#x59;" d="M717 774Q717 767 655 661Q617 596 588 541Q559 486 539 439Q476 290 476 179Q476 145 500 81Q507 61 512 48.50Q517 36 520 30Q523 25 524 25Q525 25 524 26L521 11L505 0L240 0L219 19Q219 7 221 7Q226 7 241 66Q264 156 264 186Q264 301 201 436Q190 459 176 485Q162 511 145 540Q138 552 122.50 577.50Q107 603 83 641Q20 741 20 773Q20 805 66 805L277 805Q284 805 296.50 806Q309 807 316 807Q354 807 354 775Q354 762 340 732Q327 706 327 690Q327 677 431 421L447 416Q463 448 479.50 483.50Q496 519 513 559Q559 666 559 700Q559 740 535 767L543 794L556 802Q601 803 624 803.50Q647 804 649 804Q663 804 676 802.50Q689 801 702 799L717 774Z"  horiz-adv-x="737" vert-adv-y="1000"  />

      
      <glyph glyph-name="uni5a" unicode="&#x5a;" d="M683 127Q683 93 673 63Q661 24 638 13Q602-3 387-3Q368-3 341-3Q315-3 281-2Q243-1 216.50-0.50Q190 0 175 0L33 0Q16 12 16 38Q16 129 116 286Q153 344 207 416Q232 448 256 479.50Q280 511 304 543Q408 680 412 715L407 724L395 729L397 729Q340 729 303.50 727.50Q267 726 250 724Q163 710 123 660Q115 649 107 638Q99 627 91 616Q68 590 46 590Q27 609 27 643Q27 693 40 732Q57 785 89 804Q127 800 177 798.50Q227 797 288 797Q317 797 359 797.50Q401 798 458 799Q570 802 628 802Q632 802 637.50 799Q643 796 648 792Q653 788 656.50 783Q660 778 660 775Q660 678 571 556Q512 479 468 422Q424 365 394 327Q287 187 259 89L269 73Q316 72 340 72Q365 72 367 72Q428 72 452 82Q495 98 495 147Q495 176 473 198Q464 207 433 227Q411 240 411 249Q411 273 451 286Q479 295 511 295Q583 295 633 247Q683 199 683 127Z"  horiz-adv-x="698" vert-adv-y="1000"  />

      
      <glyph glyph-name="uni5b" unicode="&#x5b;" d="M165 684Q176 688 268 688Q314 688 314 653Q314 621 275 621Q267 621 250 624.50Q233 628 225 628Q196 628 196 594Q196 590 196.50 583.50Q197 577 198 566L209 448Q213 405 215 368.50Q217 332 217 303Q217 271 212.50 211.50Q208 152 200 64Q195 13 192.50-21Q190-55 190-72Q190-129 234-129Q241-129 255.50-127Q270-125 277-125Q322-125 322-160Q322-193 280-193Q272-193 256.50-191.50Q241-190 233-190Q218-190 187-193Q172-195 161-196Q150-197 142-197Q56-197 56-114Q56-49 68 80Q80 210 80 275Q80 291 78.50 324.50Q77 358 73 412L59 624L59 630Q58 685 121 685Q124 685 129 685Q135 685 143 684L165 684Z"  horiz-adv-x="378" vert-adv-y="1000"  />

      
      <glyph glyph-name="uni5c" unicode="&#x5c;" d="M13 786Q13 769 112 397Q213 24 221 13Q230 1 255 1Q255 1 259.50 1.50Q264 2 272 3Q274 11 274 11Q274 27 251 119Q220 240 182.50 373Q145 506 100 653Q82 711 70 746.50Q58 782 51 796Q30 802 23 802Q13 802 13 786Z"  horiz-adv-x="286" vert-adv-y="1000"  />

      
      <glyph glyph-name="uni5d" unicode="&#x5d;" d="M211-192Q212-191 212-191Q212-192 209-192L200-193Q158-195 139-196Q119-197 111-197Q104-197 109-197Q64-197 64-162Q64-129 103-129Q111-129 128-132.50Q145-136 153-136Q182-136 182-102Q182-86 170 42Q166 85 164 121Q162 157 162 187Q162 224 166 283.50Q170 343 178 425Q183 477 185.50 511.50Q188 546 188 564Q188 621 145 621Q138 621 123 619Q108 617 101 617Q57 617 57 651Q57 684 98 684Q103 684 114 683Q125 682 130 682Q148 682 183 685Q200 687 213.50 688Q227 689 236 689Q322 689 322 606Q322 540 310 410Q305 344 302 295.50Q299 247 299 215Q299 187 301.50 145.50Q304 104 309 47Q314-10 316.50-51.50Q319-93 319-121Q319-174 289-186Q275-192 211-192Z"  horiz-adv-x="378" vert-adv-y="1000"  />

      
      <glyph glyph-name="uni5e" unicode="&#x5e;" d="M224 563L304 563L205 708L101 708L2 563L82 563L153 631L224 563Z"  horiz-adv-x="327" vert-adv-y="1000"  />

      
      <glyph glyph-name="uni60" unicode="&#x60;" d="M448 720Q423 730 371 772Q313 818 313 833Q313 839 320 846L146 846Q183 830 235 798L361 720L448 720Z"  horiz-adv-x="500" vert-adv-y="1000"  />

      
      <glyph glyph-name="uni61" unicode="&#x61;" d="M782 80Q782 19 729 4Q716 0 622 0Q596 0 572 1.50Q548 3 525 7L515 26L515 28Q514 38 536 66Q559 95 559 106Q559 204 498 388L488 391Q432 304 383 303L360 318Q361 329 362 337Q363 345 364 351Q365 350 364 349Q364 376 342.50 390Q321 404 293 404Q206 404 159 291Q124 204 124 101Q124 86 141 58Q159 31 159 27Q159 0 81 0Q46 0 33 13.50Q20 27 20 62Q20 138 77 303Q86 329 109 389Q132 449 169 545Q221 677 221 702Q221 711 207 736Q193 761 193 769Q193 792 234 795.50Q275 799 367 799Q382 799 404 799Q427 799 456 798Q485 797 507 797Q530 797 544 797Q568 797 586 797Q604 797 615 798L636 782Q636 769 624 745Q613 721 613 709Q613 672 657 543Q730 332 735 313Q782 160 782 80M437 560Q437 586 408 636Q376 689 354 689Q323 689 277 611Q233 537 233 503Q233 493 241 495Q301 559 358 559Q369 559 393 551Q419 543 429 543Q437 543 437 560Z"  horiz-adv-x="801" vert-adv-y="1000"  />

      
      <glyph glyph-name="uni62" unicode="&#x62;" d="M734 196Q734 102 666 49Q605 0 508 0L102 0L80 20Q76 63 74.50 119Q73 175 73 245Q73 315 76 456Q79 597 79 667Q79 693 39 776L41 786L58 797Q125 794 200 794L544 797Q614 798 658.50 758.50Q703 719 703 650Q703 581 656 528Q644 514 618 493Q592 472 552 443Q566 432 579 422.50Q592 413 605 405Q734 321 734 196M467 602Q467 645 450 677Q431 717 391 717Q288 717 288 561Q288 519 298 513Q308 508 322.50 501.50Q337 495 357 488Q399 474 415 474Q438 474 455 527Q467 567 467 602M499 218Q499 292 434 357Q369 422 294 422Q283 422 283 367L283 190Q283 146 301 112Q323 70 363 70Q422 70 460 114Q499 157 499 218Z"  horiz-adv-x="773" vert-adv-y="1000"  />

      
      <glyph glyph-name="uni63" unicode="&#x63;" d="M684 688Q684 616 632 560Q579 504 510 504Q484 504 454 517Q416 532 416 551Q416 567 436 578Q453 588 462.50 593Q472 598 474 599Q494 616 494 646Q494 664 486.50 679.50Q479 695 466 706Q453 717 436 723Q419 729 400 729Q319 729 282 635Q256 566 256 472Q256 298 316 195Q391 65 553 65Q568 65 598 68Q614 70 625 71Q636 72 644 72Q649 72 658.50 65Q668 58 668 53Q668 27 568 12Q494 0 439 0Q244 0 125 146Q14 282 14 482Q14 628 78 708Q149 797 289 797L564 797Q684 797 684 688Z"  horiz-adv-x="697" vert-adv-y="1000"  />

      
      <glyph glyph-name="uni64" unicode="&#x64;" d="M768 485Q768 284 648 146Q523 2 325 0L110-1Q78-1 66 31Q59 47 57 90Q56 103 55.50 116.50Q55 130 55 144Q55 202 61 321Q67 439 67 498Q67 696 18 766Q21 791 43 797Q53 799 86 799L559 799Q664 799 721 689Q768 600 768 485M525 452Q525 554 501 628Q465 736 385 736Q329 736 301 691Q276 653 276 594L273 165Q273 138 284 105Q297 65 320 65Q407 65 472 221Q525 350 525 452Z"  horiz-adv-x="786" vert-adv-y="1000"  />

      
      <glyph glyph-name="uni65" unicode="&#x65;" d="M649 211Q649 158 620 85Q586 0 541 0L65 0Q19 0 19 32Q19 44 35 66Q58 96 59 100Q73 134 73 176L72 633Q72 677 59 702Q58 704 52.50 711.50Q47 719 37 733Q21 752 21 765Q21 793 73 793Q116 793 179 794.50Q242 796 329 798Q500 804 585 804Q607 804 619 750Q623 731 625 713Q627 695 627 677Q627 631 602 631Q590 631 565 656Q529 690 505 703Q462 728 404 728Q324 728 299 674Q283 642 283 549Q283 528 293 518Q309 563 356 590Q399 615 450 615Q471 615 490.50 603.50Q510 592 526 574Q542 556 551.50 534.50Q561 513 561 494Q561 466 551 442Q541 418 523.50 401Q506 384 482 374Q458 364 430 364L425 375Q436 386 436.50 402Q437 418 430 433Q423 448 411 459Q399 470 385 470Q277 470 277 254Q277 162 284 140Q300 79 366 79Q435 79 496 122Q513 135 533.50 154.50Q554 174 577 202Q613 245 623 245Q631 245 640 232Q649 219 649 211Z"  horiz-adv-x="667" vert-adv-y="1000"  />

      
      <glyph glyph-name="uni66" unicode="&#x66;" d="M625 664Q625 625 595 625Q583 625 561 650Q533 680 506 695Q460 720 394 720Q313 720 288 665Q272 632 272 538Q272 520 280 506Q285 506 306 534Q332 569 355 586Q390 614 432 614Q485 614 523 576Q560 539 560 484Q560 440 524 395Q489 350 446 350L420 370Q420 377 426 391.50Q432 406 432 415Q432 435 415.50 449Q399 463 379 463Q272 463 272 283L272 145Q272 105 295 65Q318 25 318 25Q299 0 285 0L62 0Q49 0 35 7Q16 14 16 25Q16 26 39 69Q62 112 62 145L62 603Q62 657 50 692Q47 700 30 729Q16 754 16 764Q16 792 250 792Q260 792 275 791.50Q290 791 310 790Q330 789 345 789Q361 789 371 789Q404 789 470 795Q536 801 569 801Q599 801 614 745Q625 704 625 664Z"  horiz-adv-x="640" vert-adv-y="1000"  />

      
      <glyph glyph-name="uni67" unicode="&#x67;" d="M703 53Q703 25 602 10Q567 5 536 2.50Q505 0 476 0Q255 0 136 122Q17 244 17 466Q17 586 65 681Q125 799 233 799L529 798Q569 797 590 797Q612 797 614 796Q641 789 656 741Q669 705 669 668Q669 625 647 625Q631 625 594 656Q546 695 539 699Q492 725 430 725Q254 725 254 450Q254 339 297 226Q353 80 441 80Q478 80 478 194Q478 355 434 457Q419 491 419 493Q419 525 515 525Q604 525 638 503Q684 475 684 391Q684 364 681 309Q678 253 678 227Q678 197 690 139Q703 84 703 53Z"  horiz-adv-x="720" vert-adv-y="1000"  />

      
      <glyph glyph-name="uni68" unicode="&#x68;" d="M748 20Q748 0 670 0L673 0L572 0L508 0Q458 0 458 19Q458 19 478 64Q498 109 498 140L498 506L477 519Q407 519 342 458Q277 398 277 330L277 171Q277 142 296 92Q315 42 315 23Q315 15 303.50 7.50Q292 0 284 0L83 0Q25 0 25 26Q25 12 27 12Q31 12 38 40Q40 50 43 63Q46 76 50 93Q63 157 69.50 198.50Q76 240 76 260L76 487Q76 647 56 716Q55 722 39 747Q25 772 25 777Q25 786 35.50 794.50Q46 803 55 803L287 803Q316 803 316 773Q316 764 298 733Q281 702 281 680L281 582L296 563Q330 564 407 584Q494 606 494 622Q494 654 473 710Q452 765 452 776Q452 804 498 804L687 804Q746 804 746 775Q746 783 744 787Q743 786 742.50 785Q742 784 741 783Q733 766 720 699Q706 631 706 613L706 203Q706 164 727 97Q748 29 748 20Z"  horiz-adv-x="772" vert-adv-y="1000"  />

      
      <glyph glyph-name="uni69" unicode="&#x69;" d="M331 25Q331 17 317.50 8.50Q304 0 295 0L59 0Q49 0 35 9Q21 18 21 27Q36 66 44 87Q52 108 53 111Q69 159 69 199L69 645Q69 688 46 732Q23 776 23 780Q23 804 67 804L287 804Q329 804 329 775Q329 771 305 731Q282 690 282 645L281 197Q281 148 294 109Q297 98 315 64Q331 33 331 25Z"  horiz-adv-x="351" vert-adv-y="1000"  />

      
      <glyph glyph-name="uni6a" unicode="&#x6a;" d="M376 780Q376 776 360 750Q341 716 340 714Q328 685 328 631Q328 608 328 575Q328 542 329 497Q330 452 330.50 419Q331 386 331 363Q331 306 328 261Q320 159 225 47Q129-66 30-85L18-81L14-72Q24-52 32-36Q40-20 48-9Q129 108 129 261L129 625Q129 704 96 754Q84 772 84 781Q84 804 122 804L341 804Q376 804 376 780Z"  horiz-adv-x="391" vert-adv-y="1000"  />

      
      <glyph glyph-name="uni6b" unicode="&#x6b;" d="M740 5L725-6Q625-6 459 165Q425 201 380 267L311 375Q302 389 296 389Q273 389 273 289Q273 166 288 100Q289 92 305 60Q320 31 320 23Q320 16 311.50 8Q303 0 296 0L102 0Q63 0 60 42Q59 55 58.50 75.50Q58 96 58 124Q58 171 61 264Q64 358 64 405Q64 502 63.50 557.50Q63 613 62 630Q61 647 54.50 669Q48 691 37 717Q15 770 15 773Q15 799 59 799L275 799Q318 799 318 773Q287 715 286 713Q273 683 273 646L273 495Q273 468 285 468Q325 468 416 554Q507 641 507 682Q507 704 485 735Q464 766 464 775Q464 786 476.50 793Q489 800 501 800L671 800Q681 800 690 792.50Q699 785 699 775Q699 733 647 677Q636 665 611.50 642.50Q587 620 549 586Q497 540 497 525Q497 447 591 259Q633 177 669.50 113.50Q706 50 740 5Z"  horiz-adv-x="755" vert-adv-y="1000"  />

      
      <glyph glyph-name="uni6c" unicode="&#x6c;" d="M649 119Q649 93 640 71.50Q631 50 615 34Q599 18 577 9Q555 0 530 0L56 0Q17 0 17 21Q17 35 36 86Q56 141 56 172Q56 243 53 383Q50 524 50 595Q50 641 35 689Q32 697 23 719.50Q14 742 0 778Q0 804 51 804L269 804Q309 804 309 779Q309 779 284 739Q260 698 260 666L259 287Q259 63 362 63Q396 63 421.50 86.50Q447 110 447 144Q447 173 406 211Q365 249 365 249Q365 272 403 289Q433 302 463 302Q533 302 591 246Q649 191 649 119Z"  horiz-adv-x="650" vert-adv-y="1000"  />

      
      <glyph glyph-name="uni6d" unicode="&#x6d;" d="M843 95Q843 40 819.50 20Q796 0 739 0L605 0L567 27Q567 40 591 69Q616 98 616 127Q616 199 598 352Q579 526 558 556Q537 542 502 461Q476 403 460 369Q444 335 438 324Q401 254 368 254Q330 254 276 359Q259 391 246.50 415Q234 439 226 455Q183 537 160 559Q144 533 137 334Q131 197 131 90Q131 78 150 55Q170 32 170 20Q170-2 102-2Q58-2 41 12.50Q24 27 24 70Q24 121 32 195Q40 269 56 369Q89 568 89 668Q89 696 66 734Q44 771 44 782Q44 806 77 806L212 806Q264 806 311 740Q319 726 324.50 715.50Q330 705 334 697Q362 643 376 616Q410 550 437 550Q456 550 488 618L525 699Q544 740 546 743Q587 811 628 811L768 811Q806 811 806 787Q806 781 786 749Q767 718 767 690Q767 594 805 392Q843 190 843 95Z"  horiz-adv-x="866" vert-adv-y="1000"  />

      
      <glyph glyph-name="uni6e" unicode="&#x6e;" d="M736 509L736 330Q736 320 736 306Q736 293 737 274Q738 256 738.50 242.50Q739 229 739 219Q739-2 655-2Q602-2 602 25Q602 37 621 65Q641 94 641 108Q641 158 426 373Q221 578 155 611Q144 595 144 447Q144 216 166 128Q170 113 196 68Q222 24 222 20Q222-4 155-4Q56-4 56 152Q56 146 57 167.50Q58 189 60 240Q65 387 66 457Q70 526 71.50 575Q73 624 73 653Q73 700 41 730Q10 760 10 775Q10 803 55 803L210 803Q260 803 351 726Q372 707 411.50 668Q451 629 510 569Q558 520 591.50 490Q625 460 645 447Q653 453 653 474Q653 637 618 709Q616 712 609.50 720.50Q603 729 592 743Q573 768 573 777Q573 805 649 805Q740 805 740 627Q740 617 739.50 602.50Q739 588 738 568Q737 548 736.50 533.50Q736 519 736 509Z"  horiz-adv-x="745" vert-adv-y="1000"  />

      
      <glyph glyph-name="uni6f" unicode="&#x6f;" d="M782 480Q782 293 688 156Q581 0 403 0Q228 0 119 144Q19 274 19 455Q19 655 113 734Q198 804 403 804Q602 804 685 744Q782 674 782 480M543 444Q543 563 525 628Q493 739 404 739Q254 739 254 451Q254 385 259.50 329Q265 273 276 227Q312 74 401 74Q479 74 517 226Q530 278 536.50 332Q543 386 543 444Z"  horiz-adv-x="800" vert-adv-y="1000"  />

      
      <glyph glyph-name="uni70" unicode="&#x70;" d="M704 633Q704 526 609 455Q523 389 412 389Q382 389 345 398Q295 410 295 428Q295 445 319 447L316 446L356 446Q405 446 434 485Q460 520 460 572Q460 628 443 670Q420 726 371 726Q302 726 277 660Q261 619 261 535L262 308Q262 263 262.50 236Q263 209 264 198Q266 161 271 133.50Q276 106 283 89Q284 85 303 55Q319 33 319 23L290 0L110 0Q73 0 63 34Q57 53 57 98L57 612Q57 669 44 698Q43 700 37.50 710Q32 720 22 737Q6 763 6 773Q6 794 45 796Q193 800 269 802Q326 803 381 803.50Q436 804 493 804Q704 804 704 633Z"  horiz-adv-x="747" vert-adv-y="1000"  />

      
      <glyph glyph-name="uni71" unicode="&#x71;" d="M801 486Q801 340 757 238Q709 130 598 43Q600 13 631-18Q664-51 693-51Q705-51 722-36Q741-20 751-19Q770-38 770-77Q770-119 721-144Q680-167 635-167Q518-167 477-48Q460 0 456 0L428 0Q238 0 134 140Q38 270 38 467Q38 667 131 741Q212 804 419 804Q618 804 700 746Q801 675 801 486M559 435Q559 742 424 742Q326 742 292 619Q273 552 273 416Q273 256 325 146Q331 151 335.50 156Q340 161 343 165Q353 176 360 183.50Q367 191 372 193Q386 201 413 201Q442 201 466 186Q484 175 495.50 168.50Q507 162 512 160Q534 203 548 294Q553 332 556 367Q559 402 559 435M443 97Q443 106 424 119Q405 133 397 133Q386 133 377 125Q368 117 368 106Q368 92 384 83Q397 76 412 76Q443 76 443 97Z"  horiz-adv-x="819" vert-adv-y="1000"  />

      
      <glyph glyph-name="uni72" unicode="&#x72;" d="M811 26L791 12Q707 12 585 98Q494 162 424 244Q332 351 332 431Q332 484 371 484Q376 484 384 482Q392 480 400.50 477Q409 474 417 472Q425 470 430 470Q467 470 489 507Q508 538 508 577Q508 634 482 677Q452 726 397 726Q328 726 303 657Q288 615 288 529Q288 434 292.50 340.50Q297 247 305 153Q310 113 333 72Q357 30 357 23Q357 0 310 0L201 0Q137 0 123 7Q93 20 93 71Q93 121 90 253Q86 390 83.50 476.50Q81 563 79 600Q78 629 55 691Q44 720 39 736Q34 752 33 754L66 781Q106 781 165.50 784Q225 787 306 792Q466 804 547 804Q757 804 757 649Q757 588 710 535Q688 510 623 461Q576 425 576 405Q576 351 642 252Q657 230 684 195.50Q711 161 749 113Q808 39 811 26Z"  horiz-adv-x="844" vert-adv-y="1000"  />

      
      <glyph glyph-name="uni73" unicode="&#x73;" d="M608 225Q608 0 294 0Q180 0 108 28Q0 68 0 160Q0 232 49 271Q94 307 168 307Q223 307 248 276Q248 265 226 252Q195 234 186 224Q164 202 164 167Q164 124 201 99Q234 75 278 75Q325 75 353 112Q382 150 382 196Q382 258 320 314Q312 321 284 341.50Q256 362 207 396Q155 431 128.50 449Q102 467 100 469Q1 539 1 619Q1 722 68 765Q121 799 231 799Q259 799 316 796Q373 793 401 793Q419 793 455 799Q492 805 510 805Q536 805 550 743Q560 702 560 661Q560 655 553.50 644.50Q547 634 542 634Q525 634 499 660Q463 697 444 709Q403 735 351 735Q314 735 284 721Q248 704 248 669Q248 626 341 559Q383 529 411.50 508Q440 487 457 474Q500 439 515 425Q608 330 608 225Z"  horiz-adv-x="608" vert-adv-y="1000"  />

      
      <glyph glyph-name="uni74" unicode="&#x74;" d="M705 630Q705 566 682 566Q671 566 650 601Q622 648 601 667Q561 702 509 702Q469 702 469 643L469 173Q469 124 513 41L518 31L521 27Q522 26 522 25Q522 25 522 25Q522 16 508 8Q494 0 484 0L251 0Q228 0 217 17Q223 33 229 47Q235 61 240 74Q264 129 264 175L263 643Q263 654 243 677Q223 700 211 700Q161 700 126 665Q113 652 80 601Q57 566 38 566Q14 566 14 630Q14 680 34 731Q59 795 101 795L631 795Q666 795 688 728Q705 674 705 630Z"  horiz-adv-x="719" vert-adv-y="1000"  />

      
      <glyph glyph-name="uni75" unicode="&#x75;" d="M807 40L792 21Q778 20 724 17Q670 14 576 8Q510 4 456 2Q402 0 359 0Q217 0 128 82Q34 166 34 306Q34 373 67 501Q101 631 101 684Q101 724 72 759L91 794Q123 798 169.50 800Q216 802 279 802L309 802L338 781Q338 719 309 589Q280 459 280 397Q280 67 470 67Q546 67 546 203Q546 211 545.50 222.50Q545 234 544 250Q543 266 543 277Q543 289 543 297Q543 345 543 384Q543 423 542 454Q536 693 465 759Q465 807 552 807Q562 807 581.50 806Q601 805 610 805L707 804Q750 779 750 605Q750 591 749.50 570Q749 549 748 520Q747 491 746.50 470Q746 449 746 435Q746 273 749 231Q759 87 805 48L807 40Z"  horiz-adv-x="841" vert-adv-y="1000"  />

      
      <glyph glyph-name="uni76" unicode="&#x76;" d="M717 769Q717 683 617 390Q512 81 469 24Q451 0 385 0L323 0Q294 2 275 32Q253 77 237 110.50Q221 144 211 169Q192 214 170.50 267.50Q149 321 124 386Q18 665 18 739Q18 806 99 806L125 806Q133 805 139 805Q146 805 151 805L238 805Q307 805 307 775Q307 763 284 737Q262 712 262 697Q262 618 329 429Q381 279 437 161L443 158L453 164Q579 432 579 638Q579 676 572 693Q566 712 542 741Q522 765 515 780L515 782Q514 794 533 801Q550 806 562 806L627 806Q717 806 717 769Z"  horiz-adv-x="735" vert-adv-y="1000"  />

      
      <glyph glyph-name="uni77" unicode="&#x77;" d="M949 711Q949 598 882 363Q847 239 818 156.50Q789 74 764 31Q748 0 685 0Q611 0 581 10Q562 34 537 117Q527 146 518 176Q509 206 500 236L488 242Q475 210 465.50 185Q456 160 451 143Q429 76 410 48Q377 0 324 0L255 0Q218 1 158 171Q133 242 110 325.50Q87 409 64 507Q21 688 21 746Q21 809 126 809L123 809Q168 806 193 806L276 803L300 773Q298 759 275 725Q252 691 252 675Q252 572 295 424Q311 370 329 308Q347 246 368 175L381 167Q398 200 423 277Q452 362 452 385Q452 446 421 560Q390 674 390 735Q390 810 471 810Q467 810 484.50 809Q502 808 540 806Q617 803 641 797Q659 776 660 754Q622 725 622 670Q622 569 659 425Q666 399 683 338.50Q700 278 728 183L739 173L744 175Q780 265 804 375Q830 496 830 582Q830 639 810 687Q805 700 795.50 715Q786 730 773 747Q753 775 753 781Q753 781 753.50 784.50Q754 788 755 795Q795 807 883 807Q926 807 940 778Q949 760 949 711Z"  horiz-adv-x="970" vert-adv-y="1000"  />

      
      <glyph glyph-name="uni78" unicode="&#x78;" d="M792 49L778 14Q761 0 702 0L511 0L486 17L482 32Q482 42 496 62Q511 81 511 90Q511 151 328 330L314 328Q292 309 269.50 283Q247 257 223 224Q166 146 166 107Q166 92 185 67Q204 42 204 30Q204-1 128-1Q124-1 104-1Q84-1 46 0L25 22Q25 88 79 169Q89 184 114 215.50Q139 247 180 295Q200 318 222 344Q244 370 268 398Q263 411 236 444Q229 452 219.50 463Q210 474 198 487Q20 680 20 750Q20 780 46 801Q130 804 299 804L316 781Q316 767 306 746Q297 723 297 712Q297 690 352 626Q407 563 428 561Q460 571 519 633Q578 695 578 726Q578 732 575.50 740.50Q573 749 570 758Q567 767 564.50 775.50Q562 784 562 790L579 804Q608 806 630 807Q652 808 668 808Q711 808 738 801Q754 783 756 762Q742 740 705.50 704Q669 668 609 616Q498 521 484 486L659 272Q775 131 792 49Z"  horiz-adv-x="812" vert-adv-y="1000"  />

      
      <glyph glyph-name="uni79" unicode="&#x79;" d="M717 774Q717 767 655 661Q617 596 588 541Q559 486 539 439Q476 290 476 179Q476 145 500 81Q507 61 512 48.50Q517 36 520 30Q523 25 524 25Q525 25 524 26L521 11L505 0L240 0L219 19Q219 7 221 7Q226 7 241 66Q264 156 264 186Q264 301 201 436Q190 459 176 485Q162 511 145 540Q138 552 122.50 577.50Q107 603 83 641Q20 741 20 773Q20 805 66 805L277 805Q284 805 296.50 806Q309 807 316 807Q354 807 354 775Q354 762 340 732Q327 706 327 690Q327 677 431 421L447 416Q463 448 479.50 483.50Q496 519 513 559Q559 666 559 700Q559 740 535 767L543 794L556 802Q601 803 624 803.50Q647 804 649 804Q663 804 676 802.50Q689 801 702 799L717 774Z"  horiz-adv-x="737" vert-adv-y="1000"  />

      
      <glyph glyph-name="uni7a" unicode="&#x7a;" d="M683 127Q683 93 673 63Q661 24 638 13Q602-3 387-3Q368-3 341-3Q315-3 281-2Q243-1 216.50-0.50Q190 0 175 0L33 0Q16 12 16 38Q16 129 116 286Q153 344 207 416Q232 448 256 479.50Q280 511 304 543Q408 680 412 715L407 724L395 729L397 729Q340 729 303.50 727.50Q267 726 250 724Q163 710 123 660Q115 649 107 638Q99 627 91 616Q68 590 46 590Q27 609 27 643Q27 693 40 732Q57 785 89 804Q127 800 177 798.50Q227 797 288 797Q317 797 359 797.50Q401 798 458 799Q570 802 628 802Q632 802 637.50 799Q643 796 648 792Q653 788 656.50 783Q660 778 660 775Q660 678 571 556Q512 479 468 422Q424 365 394 327Q287 187 259 89L269 73Q316 72 340 72Q365 72 367 72Q428 72 452 82Q495 98 495 147Q495 176 473 198Q464 207 433 227Q411 240 411 249Q411 273 451 286Q479 295 511 295Q583 295 633 247Q683 199 683 127Z"  horiz-adv-x="698" vert-adv-y="1000"  />

      
      <glyph glyph-name="uni7b" unicode="&#x7b;" d="M268-197Q110-197 110-37L110 121Q110 161 81 190Q53 219 53 249Q53 275 81 303Q110 334 110 367L110 536Q110 688 271 688Q325 688 325 632Q325 602 305 591Q301 589 290 585.50Q279 582 259 578Q230 572 230 516L230 362Q230 282 183 244Q230 206 230 125L230-22Q230-40 231.50-51.50Q233-63 237-70Q241-77 248.50-81Q256-85 268-88Q283-92 292.50-95.50Q302-99 306-101Q325-114 325-143Q325-197 268-197Z"  horiz-adv-x="378" vert-adv-y="1000"  />

      
      <glyph glyph-name="uni7c" unicode="&#x7c;" d="M177-180L177 682L324 682L324-180L177-180Z"  horiz-adv-x="500" vert-adv-y="1000"  />

      
      <glyph glyph-name="uni7d" unicode="&#x7d;" d="M325 241Q325 206 296 186Q268 168 268 123L268-44Q268-197 107-197Q53-197 53-140Q53-113 71-99Q81-92 107-88Q128-84 137-75Q148-61 148-24L148 128Q148 208 195 246Q148 282 148 364L148 514Q148 551 142 562Q137 571 111 579Q84 586 72 593Q53 606 53 634Q53 688 110 688Q268 688 268 529L268 369Q268 354 269 344Q270 334 274 325.50Q278 317 285.50 309.50Q293 302 306 293Q325 280 325 241Z"  horiz-adv-x="378" vert-adv-y="1000"  />

      
      <glyph glyph-name="uni7e" unicode="&#x7e;" d="M105 168Q151 228 193 228Q228 228 299 198Q369 168 411 168Q488 168 531 253L495 338Q448 278 407 278Q371 278 301 308Q230 338 189 338Q112 338 69 253L105 168Z"  horiz-adv-x="600" vert-adv-y="1000"  />

      
      <glyph glyph-name="uni201A" unicode="&#x201A;" d="M180 62Q180 8 131-38Q82-85 29-85Q24-80 24-75Q24-72 41-52Q59-33 59-14Q59-10 31 19Q4 50 4 77Q4 108 28 127.50Q52 147 84 147Q180 147 180 62Z"  horiz-adv-x="183" vert-adv-y="1000"  />

      
      <glyph glyph-name="uni201E" unicode="&#x201E;" d="M402 61Q402 7 353-39Q306-85 251-85Q246-80 246-75Q246-73 264-52Q282-31 282-14Q282-11 254 18Q226 49 226 76Q226 107 250 126.50Q274 146 306 146Q402 146 402 61M190 61Q190 7 141-39Q94-85 39-85Q34-80 34-75Q34-72 51-52Q69-33 69-14Q69-11 41 18Q14 49 14 76Q14 107 38 126.50Q62 146 94 146Q190 146 190 61Z"  horiz-adv-x="415" vert-adv-y="1000"  />

      
      <glyph glyph-name="uni2026" unicode="&#x2026;" d="M527 79Q527 63 520.50 48.50Q514 34 503 23.50Q492 13 477.50 6.50Q463 0 447 0Q431 0 416 6Q401 12 389.50 22.50Q378 33 371 47Q364 61 364 77Q364 93 370.50 107.50Q377 122 388 132.50Q399 143 413.50 149.50Q428 156 444 156Q460 156 475 150Q490 144 501.50 133.50Q513 123 520 109Q527 95 527 79M349 79Q349 63 342.50 48.50Q336 34 325 23.50Q314 13 299.50 6.50Q285 0 269 0Q253 0 238 6Q223 12 211.50 22.50Q200 33 193 47Q186 61 186 77Q186 93 192.50 107.50Q199 122 210 132.50Q221 143 235.50 149.50Q250 156 266 156Q282 156 297 150Q312 144 323.50 133.50Q335 123 342 109Q349 95 349 79M171 79Q171 63 164.50 48.50Q158 34 147 23.50Q136 13 121.50 6.50Q107 0 91 0Q75 0 60 6Q45 12 33.50 22.50Q22 33 15 47Q8 61 8 77Q8 93 14.50 107.50Q21 122 32 132.50Q43 143 57.50 149.50Q72 156 88 156Q104 156 119 150Q134 144 145.50 133.50Q157 123 164 109Q171 95 171 79Z"  horiz-adv-x="534" vert-adv-y="1000"  />

      
      <glyph glyph-name="uni2020" unicode="&#x2020;" d="M466 437Q453 432 429 432Q347 432 334 534L303 534L303 18L318-2L169-2L184 21L184 534L148 534Q148 497 128 466Q106 432 70 432Q66 432 20 435Q45 475 45 512Q45 546 40 559L184 559L184 698L169 725L318 725L303 698L303 559L450 559Q448 537 446.50 526Q445 515 445 515Q445 482 466 437Z"  horiz-adv-x="473" vert-adv-y="1000"  />

      
      <glyph glyph-name="uni2021" unicode="&#x2021;" d="M466 242Q453 237 429 237Q347 237 334 339L303 339L303 18L318-2L169-2L184 21L184 339L148 339Q148 302 128 271Q106 237 70 237Q66 237 20 240Q45 280 45 317Q45 351 40 364L184 364L184 534L148 534Q148 497 128 466Q106 432 70 432Q66 432 20 435Q45 475 45 512Q45 546 40 559L184 559L184 698L169 725L318 725L303 698L303 559L450 559Q448 537 446.50 526Q445 515 445 515Q445 482 466 437Q453 432 429 432Q347 432 334 534L303 534L303 364L450 364Q448 342 446.50 331Q445 320 445 320Q445 287 466 242Z"  horiz-adv-x="473" vert-adv-y="1000"  />

      
      <glyph glyph-name="uni2039" unicode="&#x2039;" d="M231 439Q161 277 161 257Q161 239 231 77L109 77L30 258L109 439L231 439Z"  horiz-adv-x="268" vert-adv-y="1000"  />

      
      <glyph glyph-name="uni2018" unicode="&#x2018;" d="M182 679Q182 647 158.50 627.50Q135 608 102 608Q6 608 6 694Q6 747 54 794Q103 841 157 841L162 831Q162 828 144 810Q127 791 127 771Q127 765 154 734Q182 703 182 679Z"  horiz-adv-x="188" vert-adv-y="1000"  />

      
      <glyph glyph-name="uni2019" unicode="&#x2019;" d="M180 759Q180 704 131 658Q82 611 29 611Q24 616 24 621Q24 623 41 643Q59 662 59 682Q59 685 31 716Q4 747 4 774Q4 805 28 824.50Q52 844 84 844Q180 844 180 759Z"  horiz-adv-x="183" vert-adv-y="1000"  />

      
      <glyph glyph-name="uni201C" unicode="&#x201C;" d="M417 680Q417 649 393 629.50Q369 610 337 610Q241 610 241 696Q241 750 290 796Q340 843 393 843Q397 839 397 833Q397 830 379 811Q362 792 362 773Q362 768 389 737Q417 706 417 680M205 680Q205 649 181 629.50Q157 610 125 610Q29 610 29 696Q29 749 77 796Q126 843 180 843L185 833Q185 830 167 812Q150 793 150 773Q150 768 177 737Q205 706 205 680Z"  horiz-adv-x="447" vert-adv-y="1000"  />

      
      <glyph glyph-name="uni201D" unicode="&#x201D;" d="M402 761Q402 706 353 660Q304 613 251 613Q246 618 246 623Q246 625 264 645Q282 664 282 684Q282 686 254 717Q226 748 226 776Q226 807 250 826.50Q274 846 306 846Q402 846 402 761M190 761Q190 706 141 660Q92 613 39 613Q34 618 34 623Q34 625 51 645Q69 664 69 684Q69 687 41 718Q14 749 14 776Q14 807 38 826.50Q62 846 94 846Q190 846 190 761Z"  horiz-adv-x="415" vert-adv-y="1000"  />

      
      <glyph glyph-name="uni2022" unicode="&#x2022;" d="M243 412Q243 367 213 342Q183 317 137 317Q92 317 63.50 342Q35 367 35 412Q35 509 141 509Q186 509 214.50 483Q243 457 243 412Z"  horiz-adv-x="278" vert-adv-y="1000"  />

      
      <glyph glyph-name="uni2013" unicode="&#x2013;" d="M426 204Q426 210 422.50 225Q419 240 419 248Q419 258 422.50 275.50Q426 293 426 300Q426 330 382 328L375 327Q303 325 267.50 324Q232 323 230 323Q216 323 195.50 323.50Q175 324 147 325Q91 328 65 328Q25 328 25 301Q25 294 28 275.50Q31 257 31 247Q31 239 28.50 224.50Q26 210 26 203Q26 176 57 176Q71 176 93 177.50Q115 179 144 181Q173 183 195 184.50Q217 186 231 186Q245 186 265 184.50Q285 183 312 181Q339 179 359 177.50Q379 176 392 176Q426 176 426 204Z"  horiz-adv-x="453" vert-adv-y="1000"  />

      
      <glyph glyph-name="uni2014" unicode="&#x2014;" d="M745 427Q745 382 729 341Q709 288 674 279Q662 276 586 276Q562 276 526 276Q490 276 442 277Q394 278 358.50 278.50Q323 279 299 279Q124 279 51 264L27 286Q53 412 98 428Q113 433 210 433Q233 433 267 433Q301 433 347 432Q393 431 427 431Q462 431 485 431Q526 431 606 440Q647 445 677.50 447.50Q708 450 728 450Q745 450 745 427Z"  horiz-adv-x="772" vert-adv-y="1000"  />

      
      <glyph glyph-name="uni2122" unicode="&#x2122;" d="M390 684Q377 682 370.50 681.50Q364 681 364 681Q327 681 305.50 703.50Q284 726 284 763L258 763L258 443L270 421L149 421L161 443L161 763L133 763Q133 728 115 706Q95 680 63 680Q36 680 29 683Q49 715 49 745Q49 745 48 753Q47 761 45 777L378 777Q376 763 374.50 755Q373 747 373 744Q373 724 390 684M955 619Q955 545 866 456L868 449Q907 449 934 461L917 423L803 423Q873 481 873 584Q873 695 787 730L724 705Q741 662 741 622Q741 540 652 457L653 451Q691 448 719 464L704 423L588 423Q660 486 660 586Q660 681 584 726L516 700L516 448Q516 448 517 442Q518 436 520 423L420 423Q422 436 422.50 442Q423 448 423 448L423 723Q423 731 409 745L482 778Q501 768 512 725L650 779Q688 759 712 726L839 779Q895 773 927 723Q955 680 955 619Z"  horiz-adv-x="987" vert-adv-y="1000"  />

      
      <glyph glyph-name="uni203A" unicode="&#x203A;" d="M30 439Q100 277 100 257Q100 239 30 77L152 77L231 258L152 439L30 439Z"  horiz-adv-x="268" vert-adv-y="1000"  />

      
      <glyph glyph-name="unia1" unicode="&#xa1;" d="M20 104Q20 186 52 358Q90 558 129 558Q170 558 212 360Q248 189 248 107Q248 45 220.50 22.50Q193 0 129 0Q69 0 44.50 23Q20 46 20 104M55 733Q55 763 78.50 783.50Q102 804 132 804Q162 804 184.50 782Q207 760 207 730Q207 700 183.50 680Q160 660 129 660Q99 660 77 681.50Q55 703 55 733Z"  horiz-adv-x="268" vert-adv-y="1000"  />

      
      <glyph glyph-name="unia2" unicode="&#xa2;" d="M679 675Q679 603 621 555Q567 510 493 510Q412 510 392 542Q393 562 435 587Q476 613 476 653Q476 725 397 725Q306 725 255 610Q216 521 216 416Q216 78 463 78Q483 78 531 83.50Q579 89 655 100L660 87L656 74Q611 32 537 23Q432 10 412 2Q401-1 395-42Q389-84 371-84Q367-84 360-81.50Q353-79 349-79Q341-68 341-52L342-65L342-23Q342-6 324 2Q303 12 268 23Q262 25 247.50 28.50Q233 32 210 37Q170 47 139.50 59Q109 71 89 87Q44 121 13 194Q-16 269-16 348Q-16 419 15 524Q29 567 43.50 609Q58 651 72 693Q74 700 59 729Q44 760 44 770Q44 781 61 798Q68 799 75 799Q82 799 90 799Q104 799 126 798Q148 797 177 795Q206 793 228 792Q250 791 264 791Q302 791 322 794Q332 809 334 838Q336 858 336.50 869.50Q337 881 338 884L362 891L392 869Q390 810 409 796Q463 797 490.50 797.50Q518 798 520 798Q589 798 630 771Q679 740 679 675Z"  horiz-adv-x="661" vert-adv-y="1000"  />

      
      <glyph glyph-name="unia3" unicode="&#xa3;" d="M563 137Q563 73 519 37Q478 4 413 4Q341 4 234 75Q171 28 167 27Q123 0 90 0Q-7 0-7 97Q-7 195 153 222L160 238Q140 346 106 371Q92 371 64 368Q50 367 39.50 366.50Q29 366 22 366Q18 367 15 367.50Q12 368 8 369Q-3 389-3 403Q-3 435 24 449Q32 453 39 456Q46 459 54 463Q19 544 18 547Q1 596 1 636Q1 742 126 783Q201 807 339 807Q347 807 359 807Q371 807 388 806Q405 805 417 805Q429 805 437 805L464 805Q487 805 501 752Q513 705 513 659L494 633Q484 634 427 681Q371 728 330 728Q281 728 256 691Q234 660 234 609Q234 589 260 477L283 465Q341 474 371 474Q380 471 386.50 469Q393 467 398 466Q398 417 360 397Q338 386 279 377Q268 361 268 341Q268 336 269 324.50Q270 313 270 307Q270 300 268.50 290Q267 280 265 266Q260 238 260 227Q260 223 266 208Q276 201 340 190Q396 180 420 180Q484 180 499 217Q503 230 513 230Q535 230 550 193Q563 164 563 137M148 113Q148 124 147 125Q143 129 115 129Q64 129 64 91Q64 68 102 68Q148 90 148 113Z"  horiz-adv-x="554" vert-adv-y="1000"  />

      
      <glyph glyph-name="unia4" unicode="&#xa4;" d="M36 151L95 92L151 148Q203 102 296 102Q390 102 443 149L497 93L555 151L501 205Q548 261 548 350Q548 445 501 492L556 548L492 612L435 557Q386 598 296 598Q205 598 153 555L98 610L37 549L91 495Q45 443 45 350Q45 260 91 205L36 151M438 350Q438 288 398 245Q358 202 296 202Q234 202 194 245Q155 288 155 350Q155 411 194 455Q234 498 296 498Q358 498 398 455Q438 412 438 350Z"  horiz-adv-x="592" vert-adv-y="1000"  />

      
      <glyph glyph-name="unia7" unicode="&#xa7;" d="M472 30Q472-36 382-73Q324-96 290-114.50Q256-133 245-146Q211-112 156-89Q105-67 54-67Q54-67 45-68.50Q36-70 18-72Q64-8 64 22Q187 22 320-72Q337-72 350.50-54Q364-36 364-18Q364 7 275 42Q237 57 208 68Q179 79 160 87Q114 105 108 109Q18 158 18 227Q18 296 136 342Q94 359 60 391Q20 428 20 468Q20 513 57 546Q84 568 135 590Q171 606 229 625L245 638Q341 569 431 569Q385 523 385 474Q374 479 365 483.50Q356 488 351 490Q343 492 335.50 492.50Q328 493 322 494Q280 502 249 518Q211 538 166 584Q123 578 123 536Q123 479 213 449Q270 430 311.50 416.50Q353 403 381 394Q390 392 410 379Q472 341 472 280Q472 226 441 199Q423 184 360 158Q472 131 472 30M364 220Q364 249 274 290L164 339Q123 322 123 292Q123 234 313 170Q364 176 364 220Z"  horiz-adv-x="507" vert-adv-y="1000"  />

      
      <glyph glyph-name="unia9" unicode="&#xa9;" d="M356-26Q203-26 101 76Q-1 178-1 331Q-1 483 102 586Q206 690 356 690Q507 690 611 586Q715 482 715 331Q715 179 612 76Q508-26 356-26M356 612Q238 612 156 530Q75 449 75 331Q75 211 155 129Q235 49 356 49Q474 49 555 131Q637 213 637 331Q637 451 556 531Q476 612 356 612M386 421L332 464Q327 464 322.50 463.50Q318 463 313 462Q287 395 287 327Q287 171 372 171Q396 171 416 183.50Q436 196 436 219Q436 232 408 260Q436 296 468 296Q524 296 524 237Q524 181 475 150Q433 123 374 123Q163 123 163 309Q163 406 248 509Q351 507 393 525Q401 529 407.50 532.50Q414 536 418 538Q484 487 556 453L412 352Q360 352 360 391Q360 416 386 421Z"  horiz-adv-x="716" vert-adv-y="1000"  />

      
      <glyph glyph-name="uniab" unicode="&#xab;" d="M231 439Q161 277 161 257Q161 239 231 77L109 77L30 258L109 439L231 439M422 439L356 282Q353 274 353 258Q353 243 422 77L300 77L220 258L300 439L422 439Z"  horiz-adv-x="439" vert-adv-y="1000"  />

      
      <glyph glyph-name="uniac" unicode="&#xac;" d="M354-17L484-17L484 299L16 299L16 178L354 178L354-17Z"  horiz-adv-x="500" vert-adv-y="1000"  />

      
      <glyph glyph-name="uniae" unicode="&#xae;" d="M362-26Q209-26 106 76Q3 178 3 331Q3 482 107 586Q211 690 362 690Q513 690 617 586Q721 482 721 331Q721 179 618 76Q514-26 362-26M362 612Q244 612 162 530Q81 449 81 331Q81 211 161 129Q241 49 362 49Q480 49 561 131Q643 213 643 331Q643 451 562 531Q482 612 362 612M449 300Q450 264 470 228Q493 187 526 187Q537 187 542 190L554 208L578 196Q578 158 554.50 136.50Q531 115 493 115Q347 115 319 314L310 320L310 171L323 133L168 133L183 172L183 507L167 541Q186 537 195 535.50Q204 534 204 534Q246 534 284.50 535.50Q323 537 358 541Q375 543 382.50 544Q390 545 388 545L403 545Q465 545 507 515Q555 480 555 422Q555 376 525 343.50Q495 311 449 300M311 413Q347 408 354 404Q367 396 378 368Q349 368 346 357Q351 343 372 343Q397 343 413.50 364Q430 385 430 411Q430 436 415 460Q398 489 376 489Q372 489 311 486L311 413Z"  horiz-adv-x="740" vert-adv-y="1000"  />

      
      <glyph glyph-name="unib0" unicode="&#xb0;" d="M167 674Q223 674 264 635Q305 596 305 539Q305 483 264 442Q223 403 167 403Q108 403 68 442Q29 481 29 540Q29 598 69 635Q109 674 167 674M167 611Q137 611 114.50 590.50Q92 570 92 540Q92 508 113.50 487Q135 466 167 466Q198 466 219.50 487Q241 508 241 539Q241 570 219.50 590.50Q198 611 167 611Z"  horiz-adv-x="333" vert-adv-y="1000"  />

      
      <glyph glyph-name="unib1" unicode="&#xb1;" d="M487 263L290 263L290 141L222 141L222 263L25 263L25 331L222 331L222 453L290 453L290 331L487 331L487 263M487 19L25 19L25 87L487 87L487 19Z"  horiz-adv-x="512" vert-adv-y="1000"  />

      
      <glyph glyph-name="unib5" unicode="&#xb5;" d="M1390 562Q1390 591 1371.50 612.50Q1353 634 1325 634L1177 634Q1140 634 1140 669L1140 800L1083 800L1083 669Q1083 581 1199 581Q1207 581 1218.50 581.50Q1230 582 1246 583Q1262 584 1274 584.50Q1286 585 1294 585Q1335 585 1335 566Q1335 545 1295 545Q1287 545 1275 545.50Q1263 546 1246 547Q1214 550 1198 550Q1083 550 1083 454L1083 132Q1083 62 1155 46L1155 102Q1136 114 1136 144L1136 446Q1136 491 1171 491L1317 491Q1346 491 1368 512Q1390 533 1390 562M1003 136L1003 230Q1003 272 976.50 295Q950 318 907 318L661 318Q620 318 620 355L620 450Q620 493 661 493L905 493Q928 493 948 472L998 472Q985 548 909 548L663 548Q618 548 591.50 519.50Q565 491 565 446L565 357Q565 315 590 290Q615 265 657 265L907 265Q952 265 952 220L952 144Q952 99 891 99L641 99Q619 99 619 120Q619 138 639 138L909 138L909 191L630 191Q600 191 582.50 170Q565 149 565 118Q565 88 585 68Q605 48 635 48L917 48Q956 48 979.50 72.50Q1003 97 1003 136M422 42Q452 42 473.50 64Q495 86 495 116L496 800L440 800L442 118Q442 112 436 104.50Q430 97 424 97Q405 97 405 118L405 269Q405 313 374 344L195 521Q176 540 143 540Q112 540 88 522Q61 502 61 472L61 142Q61 46 149 46L231 46Q294 46 308 118L255 118Q243 103 230 97L149 97Q114 97 114 140L114 450Q114 458 122 482Q129 488 139 488Q152 488 166 474L261 381Q346 297 348 288Q349 271 349.50 258Q350 245 350 237L350 119Q350 88 370.50 65Q391 42 422 42M11-39L11 800L1415 800L1415-39L11-39Z"  horiz-adv-x="1454" vert-adv-y="1000"  />

      
      <glyph glyph-name="unib6" unicode="&#xb6;" d="M264 237Q231 231 211 231Q124 231 70 296Q19 356 19 445Q19 667 318 667L549 667Q531 641 526 609Q525 607 524 591.50Q523 576 521 547L484 33Q481-8 481-14Q481-40 494-65L418-65L418 533L376 533L376-65L300-65Q307-40 307-21Q307-16 307-6Q307 4 306 19L295 352Q310 380 310 403Q310 438 288 460.50Q266 483 231 483Q196 483 175 460Q154 437 154 402Q154 366 175.50 343.50Q197 321 233 321Q254 321 277 336L264 237Z"  horiz-adv-x="566" vert-adv-y="1000"  />

      
      <glyph glyph-name="unib7" unicode="&#xb7;" d="M33 297L157 297L157 173L33 173L33 297Z"  horiz-adv-x="190" vert-adv-y="1000"  />

      
      <glyph glyph-name="unibb" unicode="&#xbb;" d="M222 77Q291 243 291 259Q291 274 222 439L343 439L422 258L343 77L222 77M30 77Q100 244 100 257Q100 272 30 439L152 439L232 258L152 77L30 77Z"  horiz-adv-x="439" vert-adv-y="1000"  />

      
      <glyph glyph-name="unia6" unicode="&#xa6;" d="M184 311L317 311L317 685L184 685L184 311M184-184L317-184L317 171L184 171L184-184Z"  horiz-adv-x="500" vert-adv-y="1000"  />

      
      <glyph glyph-name="uniad" unicode="&#xad;" d="M504 417Q504 383 483 343Q462 303 433 292Q416 285 361 285Q335 285 283 288Q257 290 237.50 291Q218 292 205 292Q103 292 30 277Q20 288 14 299Q40 407 82 423Q98 429 285 429Q302 429 326.50 430.50Q351 432 383 434Q449 440 482 440Q504 440 504 417Z"  horiz-adv-x="519" vert-adv-y="1000"  />

      
      <glyph glyph-name="uni0410" unicode="&#x0410;" d="M782 80Q782 19 729 4Q717 0 622 0Q596 0 572 1.50Q548 3 525 7L515 26L515 28Q514 38 536 66Q559 95 559 106Q559 205 498 388L488 391Q433 305 383 303L360 318Q361 329 362 337Q363 345 364 351Q365 350 364 349Q364 376 342.50 390Q321 404 293 404Q206 404 159 291Q124 203 124 101Q124 87 141 58Q159 31 159 27Q159 0 81 0Q46 0 33 13.50Q20 27 20 62Q20 138 77 303Q86 329 109 388.50Q132 448 169 545Q221 676 221 702Q221 710 207 736Q193 762 193 769Q193 792 234 795.50Q275 799 367 799L404 799Q427 799 456 798Q485 797 507 797L544 797L586 797Q595 797 602.50 797Q610 797 615 798L636 782Q636 769 624 745Q613 720 613 709Q613 673 657 543Q731 330 735 313Q782 158 782 80M437 560Q437 586 408 636Q376 689 354 689Q323 689 277 611Q233 537 233 503Q233 493 241 495Q301 559 358 559Q367 559 393 551Q420 543 429 543Q437 543 437 560Z"  horiz-adv-x="801" vert-adv-y="1000"  />

      
      <glyph glyph-name="uni0412" unicode="&#x0412;" d="M714 196Q714 102 646 49Q585 0 488 0L82 0L60 20Q56 63 54.50 119Q53 175 53 245Q53 315 56 456Q59 597 59 667Q59 693 19 776L21 786L38 797Q105 794 180 794L524 797Q594 798 638.50 758.50Q683 719 683 650Q683 581 636 528Q624 514 598 493Q572 472 532 443Q546 432 559 422.50Q572 413 585 405Q714 321 714 196M447 602Q447 645 430 677Q411 717 371 717Q268 717 268 561Q268 519 278 513Q288 508 302.50 501.50Q317 495 337 488Q379 474 395 474Q418 474 435 527Q447 567 447 602M479 218Q479 292 414 357Q349 422 274 422Q263 422 263 367L263 190Q263 146 281 112Q303 70 343 70Q402 70 440 114Q479 157 479 218Z"  horiz-adv-x="740" vert-adv-y="1000"  />

      
      <glyph glyph-name="uni0413" unicode="&#x0413;" d="M271 538L271 145Q271 105 294 65Q317 25 307.50 12.50Q298 0 284 0L61 0Q48 0 34 7Q15 14 15 25Q15 26 38 69Q61 112 61 145L61 611Q61 665 49 700Q46 708 29 737Q15 762 15 772Q15 800 249 792Q259 792 274 791.50Q289 791 309 790Q329 789 344 789Q360 789 370 789Q403 789 469 795Q535 801 568 801Q598 801 618 745Q629 685 629 626Q629 569 598 569Q585 569 563 606Q534 650 506 672Q458 708 393 720Q312 720 287 665Q271 632 271 538Z"  horiz-adv-x="640" vert-adv-y="1000"  />

      
      <glyph glyph-name="uni0415" unicode="&#x0415;" d="M649 211Q649 157 620 85Q586 0 541 0L65 0Q19 0 19 32Q19 44 35 66Q57 96 59 100Q73 133 73 176L72 633Q72 677 59 702Q58 704 52.50 711.50Q47 719 37 733Q21 753 21 765Q21 793 73 793Q116 793 179.50 794.50Q243 796 329 798Q500 804 585 804Q607 804 619 750Q623 731 625 713Q627 695 627 677Q627 631 602 631Q591 631 565 656Q531 689 505 703Q461 728 404 728Q324 728 299 674Q283 641 283 549Q283 528 293 518Q309 563 356 590Q399 615 450 615Q492 615 526 575Q561 535 561 494Q561 466 551 442Q541 418 523.50 401Q506 384 482 374Q458 364 430 364L425 375Q436 400 436 414Q436 430 418 450Q401 470 385 470Q277 470 277 254Q277 164 284 140Q300 79 366 79Q435 79 496 122Q531 147 577 202Q613 245 623 245Q631 245 640 232Q649 219 649 211Z"  horiz-adv-x="667" vert-adv-y="1000"  />

      
      <glyph glyph-name="uni0416" unicode="&#x0416;" d="M657 799Q700 799 700 773Q669 715 668 713Q655 683 655 646L655 495Q655 468 667 468Q707 468 798 554Q889 641 889 682Q889 704 867 735Q846 766 846 775Q846 786 858.50 793Q871 800 883 800L1053 800Q1063 800 1072 792.50Q1081 785 1081 775Q1081 733 1029 677Q1018 665 993.50 642.50Q969 620 931 586Q879 540 879 525Q879 447 973 259Q1015 177 1051.50 113.50Q1088 50 1122 5L1107-6Q1007-6 841 165Q807 201 762 267L693 375Q684 389 678 389Q655 389 655 289Q655 166 670 100Q671 92 687 60Q702 31 702 23Q702 16 693.50 8Q685 0 678 0L452 0Q445 0 436.50 8Q428 16 428 23Q428 31 443 60Q459 92 460 100Q475 166 475 289Q475 389 452 389Q446 389 437 375L368 267Q323 201 289 165Q123-6 23-6L8 5Q42 50 78.50 113.50Q115 177 157 259Q251 447 251 525Q251 540 199 586Q161 620 136.50 642.50Q112 665 101 677Q49 733 49 775Q49 785 58 792.50Q67 800 77 800L247 800Q259 800 271.50 793Q284 786 284 775Q284 766 263 735Q241 704 241 682Q241 641 332 554Q423 468 463 468Q475 468 475 495L475 646Q475 683 462 713Q461 715 430 773Q430 799 473 799L657 799Z"  horiz-adv-x="1148" vert-adv-y="1000"  />

      
      <glyph glyph-name="uni0411" unicode="&#x0411;" d="M482 218Q482 292 417 357Q352 422 277 422Q266 422 266 367L266 190Q266 146 284 112Q306 70 346 70Q405 70 443 114Q482 157 482 218M472 795Q507 799 537.50 800Q568 801 585 801Q617 801 632 726Q638 699 641 666.50Q644 634 644 607Q644 555 612 555Q599 555 577 589Q557 615 540.50 638.50Q524 662 505 679.50Q486 697 460.50 707.50Q435 718 396 720Q315 720 290 665Q287 660 282 639.50Q277 619 273.50 595.50Q270 572 271 551.50Q272 531 282 525Q324 501 373 485Q422 469 470 453Q518 437 563 418.50Q608 400 642 371Q676 342 696.50 300Q717 258 717 196Q717 102 649 49Q588 0 491 0L85 0L63 20Q59 63 57.50 119Q56 175 56 245Q56 315 59 456Q60 491 60 512Q60 533 60 547Q60 561 59.50 573Q59 585 59 603Q59 630 58.50 655Q58 680 52 697Q49 705 32 734Q18 760 18 769Q18 783 76 787.50Q134 792 252 792Q258 792 269.50 791.50Q281 791 294 790.50Q307 790 321 789.50Q335 789 347 789L373 789Q406 789 472 795Z"  horiz-adv-x="744" vert-adv-y="1000"  />

      
      <glyph glyph-name="uni0414" unicode="&#x0414;" d="M145 0Q127 0 90-35Q76-49 42-98Q18-133-2-133Q-17-133-21-114.50Q-25-96-21.50-68Q-18-40-8.50-7.50Q1 25 14 53Q27 81 42 99.50Q57 118 71 118Q90 125 101 126.50Q112 128 118.50 133.50Q125 139 130 153Q135 167 143 200Q152 239 161 285Q170 331 177.50 379.50Q185 428 191.50 474.50Q198 521 202.50 560.50Q207 600 209.50 628Q212 656 212 668Q210 682 204.50 697.50Q199 713 185 731Q171 749 164.50 761Q158 773 156 778Q153 801 186 803L562 803L702 804Q740 804 739 780Q739 777 733.50 767.50Q728 758 718 742Q697 711 696 683Q695 664 696.50 630Q698 596 701 553.50Q704 511 708 462.50Q712 414 716.50 364.50Q721 315 725.50 267.50Q730 220 735 180Q737 159 741 146Q745 133 752.50 126.50Q760 120 771 117.50Q782 115 799 115Q810 115 821.50 97Q833 79 842.50 51.50Q852 24 858-8Q864-40 865-67Q866-94 860.50-112Q855-130 841-130Q830-130 810-95Q796-72 785-55.50Q774-39 763-29Q725 5 673-1L145 0L145 0M514 385Q512 458 511.50 509Q511 560 509 593.50Q507 627 502.50 645.50Q498 664 487 673Q476 682 458 684Q440 686 412 686Q384 686 366.50 683.50Q349 681 337.50 669.50Q326 658 319 634Q312 610 304 567Q286 472 271 373Q256 274 236 167Q234 159 233.50 150Q233 141 236 133Q239 125 248 119.50Q257 114 275 114Q313 114 365.50 113.50Q418 113 471 114Q502 115 510 128.50Q518 142 520 172Q523 208 519.50 258Q516 308 514 385Z"  horiz-adv-x="880" vert-adv-y="1000"  />

      
      <glyph glyph-name="uni0417" unicode="&#x0417;" d="M414 196Q414 251 403.50 289Q393 327 370.50 352.50Q348 378 313 393Q278 408 228 417Q199 423 194 430.50Q189 438 200.50 447.50Q212 457 236 467Q260 477 289 488Q324 496 346 517Q368 538 377 565.50Q386 593 382 623Q378 653 361 678Q344 703 314.50 719Q285 735 242 735Q216 735 197.50 724.50Q179 714 156 696Q145 688 129.50 671.50Q114 655 93 629Q64 594 44 594Q41 594 37.50 598Q34 602 31 608Q28 614 26 620.50Q24 627 24 631Q24 659 26.50 687Q29 715 35 743Q39 764 46 776.50Q53 789 60.50 795Q68 801 76 803Q84 805 90 805Q107 805 145 799Q181 793 199 793Q213 793 230.50 793.50Q248 794 277 796Q334 799 361 799Q416 799 456 789Q496 779 524 765Q552 751 566.50 723.50Q581 696 583 663.50Q585 631 574 596Q563 561 541 531Q519 501 485.50 480Q452 459 408 454Q462 453 505 430Q548 407 578 373Q608 339 624 299Q640 259 640 225Q640 0 326 0Q269 0 214.50 7Q160 14 124 28Q78 45 53 73Q28 101 20 133.50Q12 166 20.50 199Q29 232 51 258.50Q73 285 107 302Q141 319 184 319Q239 319 264 288Q264 277 242 264Q220 252 203.50 231Q187 210 181.50 187Q176 164 183.50 140.50Q191 117 217 99Q233 87 256.50 80.50Q280 74 304 75Q328 76 349.50 85Q371 94 385 112Q414 150 414 196Z"  horiz-adv-x="654" vert-adv-y="1000"  />

      
      <glyph glyph-name="uni0418" unicode="&#x0418;" d="M277 171Q276 144 296 92Q315 44 315 23Q315 15 303.50 7.50Q292 0 284 0L83 0Q25 0 25 26Q25 12 27 12Q31 12 38 40Q40 50 43 63Q46 76 50 93Q63 157 69.50 198.50Q76 240 76 260L76 487Q76 645 56 716Q55 719 51 726.50Q47 734 39 747Q25 773 25 777Q25 786 35.50 794.50Q46 803 55 803L287 803Q316 803 316 773Q316 764 298 733Q281 701 281 680L281 565Q281 539 286 526Q291 513 299.50 508.50Q308 504 319 506Q330 508 343 513Q367 522 394 537Q421 552 444 567.50Q467 583 481 598Q495 613 494 622Q492 638 488 660Q484 682 473 710Q452 765 452 776Q452 804 498 804L687 804Q746 804 746 775Q746 781 744 787Q743 786 742.50 785Q742 784 741 783Q733 766 720 699Q706 629 706 613L706 203Q706 164 727 97Q748 29 748 20Q748 0 670 0L673 0L572 0L508 0Q458 0 458 19Q498 108 498 140L498 363Q497 391 492.50 406Q488 421 481 427Q474 433 464.50 432Q455 431 445 428Q429 423 410.50 414.50Q392 406 373.50 395.50Q355 385 338 373.50Q321 362 308 352Q301 346 295 339.50Q289 333 285 322Q281 311 279 294Q277 277 278 249L277 171Z"  horiz-adv-x="772" vert-adv-y="1000"  />

      
      <glyph glyph-name="uni0419" unicode="&#x0419;" d="M386 878Q339 877 295 884.50Q251 892 216 907Q181 922 160 944.50Q139 967 139 997Q139 1036 154.50 1058Q170 1080 192 1089Q214 1098 239 1097.50Q264 1097 283 1091Q302 1085 311 1076.50Q320 1068 310 1061Q296 1053 290 1037.50Q284 1022 285.50 1005Q287 988 296 973.50Q305 959 322 954Q352 943 386 943Q421 943 451 954Q468 959 477 973.50Q486 988 487.50 1005Q489 1022 483 1037.50Q477 1053 463 1061Q456 1066 466 1074Q476 1082 495 1087.50Q514 1093 538 1094.50Q562 1096 583.50 1087Q605 1078 619.50 1057Q634 1036 634 997Q634 967 613 944.50Q592 922 557 907Q522 892 477.50 884.50Q433 877 387 878L386 878M277 171Q276 144 296 92Q315 44 315 23Q315 15 303.50 7.50Q292 0 284 0L83 0Q25 0 25 26Q25 12 27 12Q31 12 38 40Q40 50 43 63Q46 76 50 93Q63 157 69.50 198.50Q76 240 76 260L76 487Q76 645 56 716Q55 719 51 726.50Q47 734 39 747Q25 773 25 777Q25 786 35.50 794.50Q46 803 55 803L287 803Q316 803 316 773Q316 764 298 733Q281 701 281 680L281 565Q281 539 286 526Q291 513 299.50 508.50Q308 504 319 506Q330 508 343 513Q367 522 394 537Q421 552 444 567.50Q467 583 481 598Q495 613 494 622Q492 638 488 660Q484 682 473 710Q452 765 452 776Q452 804 498 804L687 804Q746 804 746 775Q746 781 744 787Q743 786 742.50 785Q742 784 741 783Q733 766 720 699Q706 629 706 613L706 203Q706 164 727 97Q748 29 748 20Q748 0 670 0L673 0L572 0L508 0Q458 0 458 19Q498 108 498 140L498 363Q497 391 492.50 406Q488 421 481 427Q474 433 464.50 432Q455 431 445 428Q429 423 410.50 414.50Q392 406 373.50 395.50Q355 385 338 373.50Q321 362 308 352Q301 346 295 339.50Q289 333 285 322Q281 311 279 294Q277 277 278 249L277 171Z"  horiz-adv-x="772" vert-adv-y="1000"  />

      
      <glyph glyph-name="uni041A" unicode="&#x041A;" d="M740 5L725-6Q625-6 459 165Q425 201 380 267L311 375Q302 389 296 389Q273 389 273 289Q273 166 288 100Q289 92 305 60Q320 31 320 23Q320 16 311.50 8Q303 0 296 0L102 0Q63 0 60 42Q59 55 58.50 75.50Q58 96 58 124Q58 171 61 264Q64 358 64 405Q64 502 63.50 557.50Q63 613 62 630Q61 647 54.50 669Q48 691 37 717Q15 770 15 773Q15 799 59 799L275 799Q318 799 318 773Q287 715 286 713Q273 683 273 646L273 495Q273 468 285 468Q325 468 416 554Q507 641 507 682Q507 704 485 735Q464 766 464 775Q464 786 476.50 793Q489 800 501 800L671 800Q681 800 690 792.50Q699 785 699 775Q699 733 647 677Q636 665 611.50 642.50Q587 620 549 586Q497 540 497 525Q497 447 591 259Q633 177 669.50 113.50Q706 50 740 5Z"  horiz-adv-x="755" vert-adv-y="1000"  />

      
      <glyph glyph-name="uni041C" unicode="&#x041C;" d="M843 95Q843 40 819.50 20Q796 0 739 0L605 0L567 27Q567 40 591 69Q616 98 616 127Q616 199 598 352Q579 526 558 556Q537 542 502 461Q476 403 460 369Q444 335 438 324Q401 254 368 254Q330 254 276 359Q259 391 246.50 415Q234 439 226 455Q183 537 160 559Q144 533 137 334Q131 197 131 90Q131 78 150 55Q170 32 170 20Q170-2 102-2Q58-2 41 12.50Q24 27 24 70Q24 121 32 195Q40 269 56 369Q89 568 89 668Q89 696 66 734Q44 771 44 782Q44 806 77 806L212 806Q264 806 311 740Q319 726 324.50 715.50Q330 705 334 697Q362 643 376 616Q410 550 437 550Q456 550 488 618L525 699Q544 740 546 743Q587 811 628 811L768 811Q806 811 806 787Q806 781 786 749Q767 718 767 690Q767 594 805 392Q843 190 843 95Z"  horiz-adv-x="866" vert-adv-y="1000"  />

      
      <glyph glyph-name="uni041D" unicode="&#x041D;" d="M499 622Q494 654 473 710Q452 765 452 776Q452 804 498 804L687 804Q733 804 743 786L742 785Q742 784 741 783Q733 766 720 699Q706 631 706 613L706 203Q706 164 727 97Q748 29 748 20Q748 0 673 0L509 0Q459 0 459 19Q499 109 499 140L499 371Q451 301 407 299L386 313Q387 324 388 331Q389 338 390 343L390 344L390 345Q389 375 370 389Q351 403 329.50 400.50Q308 398 291 379Q274 360 277 325L277 171Q277 142 296 92Q315 42 315 23Q315 15 303.50 7.50Q292 0 284 0L83 0Q41 0 29 13Q32 18 38 40Q40 50 43 63Q46 76 50 93Q63 157 69.50 198.50Q76 240 76 260L76 487Q76 647 56 716Q55 722 39 747Q25 772 25 777Q25 786 35.50 794.50Q46 803 55 803L287 803Q316 803 316 773Q316 764 298 733Q281 702 281 680L281 582Q281 580 281 564.50Q281 549 281.50 531.50Q282 514 282.50 499.50Q283 485 285 485L286 485Q341 540 396 548.50Q451 557 499 522L499 622M25 23Q25 12 27 12Q28 12 29 13Q25 18 25 23M746 775Q746 783 744 787L743 786Q746 781 746 775Z"  horiz-adv-x="772" vert-adv-y="1000"  />

      
      <glyph glyph-name="uni041E" unicode="&#x041E;" d="M782 480Q782 293 688 156Q581 0 403 0Q228 0 119 144Q19 274 19 455Q19 655 113 734Q198 804 403 804Q602 804 685 744Q782 674 782 480M543 444Q543 563 525 628Q493 739 404 739Q254 739 254 451Q254 385 259.50 329Q265 273 276 227Q312 74 401 74Q479 74 517 226Q530 278 536.50 332Q543 386 543 444Z"  horiz-adv-x="800" vert-adv-y="1000"  />

      
      <glyph glyph-name="uni041F" unicode="&#x041F;" d="M364 789Q407 789 423 789Q438 789 458 790Q478 791 493 791.50Q508 792 518 792Q752 800 752 772Q752 762 738 737Q721 708 718 700Q706 665 706 611L706 145Q706 112 729 69Q752 26 752 25Q752 14 733 7Q719 0 706 0L483 0Q469 0 459.50 12.50Q450 25 473 65Q496 105 496 145L496 538Q496 632 480 665Q455 720 387 720Q315 720 290 665Q274 632 274 538L274 145Q274 105 297 65Q320 25 310.50 12.50Q301 0 287 0L64 0Q51 0 37 7Q18 14 18 25Q18 26 41 69Q64 112 64 145L64 611Q64 665 52 700Q49 708 32 737Q18 762 18 772Q18 800 252 792Q262 792 277 791.50Q292 791 312 790Q332 789 347 789Q363 789 364 789Z"  horiz-adv-x="769" vert-adv-y="1000"  />

      
      <glyph glyph-name="uni0420" unicode="&#x0420;" d="M271 802Q328 802 383 802Q438 802 495 801Q706 798 703 627Q702 520 606 450Q519 386 408 387Q378 387 341 397Q291 410 292 428Q292 445 316 446L313 445L353 445Q402 444 431 483Q458 517 459 569Q459 625 443 668Q421 724 372 725Q303 725 277 660Q261 619 261 535L262 308Q262 263 262.50 236Q263 209 264 198Q266 161 271 133.50Q276 106 283 89Q284 85 303 55Q319 33 319 23L290 0L110 0Q73 0 63 34Q57 53 57 98L57 616Q57 673 44 702Q43 704 37.50 714Q32 724 22 741Q6 767 6 777Q6 798 45 800Q193 800 269 802L271 802Z"  horiz-adv-x="722" vert-adv-y="1000"  />

      
      <glyph glyph-name="uni0421" unicode="&#x0421;" d="M683 688Q683 616 631 560Q578 504 509 504Q483 504 453 517Q415 532 415 551Q415 567 435 578Q452 588 461.50 593Q471 598 473 599Q493 616 493 646Q493 664 485.50 679.50Q478 695 465 706Q452 717 435 723Q418 729 399 729Q318 729 281 635Q255 566 255 472Q255 298 315 195Q390 65 552 65Q567 65 597 68Q613 70 624 71Q635 72 643 72Q648 72 657.50 65Q667 58 667 53Q667 27 567 12Q493 0 438 0Q243 0 124 146Q13 282 13 482Q13 628 77 708Q148 797 288 797L563 797Q683 797 683 688Z"  horiz-adv-x="697" vert-adv-y="1000"  />

      
      <glyph glyph-name="uni0422" unicode="&#x0422;" d="M705 630Q705 566 682 566Q671 566 650 601Q622 648 601 667Q561 702 509 702Q469 702 469 643L469 173Q469 124 513 41L518 31L521 27Q522 26 522 25Q522 16 508 8Q494 0 484 0L251 0Q228 0 217 17Q223 33 229 47Q235 61 240 74Q264 129 264 175L263 643Q263 654 243 677Q223 700 211 700Q161 700 126 665Q113 652 80 601Q57 566 38 566Q14 566 14 630Q14 680 34 731Q59 795 101 795L631 795Q666 795 688 728Q705 674 705 630Z"  horiz-adv-x="719" vert-adv-y="1000"  />

      
      <glyph glyph-name="uni042F" unicode="&#x042F;" d="M10-2Q11 3 26 25.50Q41 48 69 86Q118 155 149 202.50Q180 250 198 284.50Q216 319 223 345Q230 371 230 396Q230 407 218.50 420Q207 433 180 451Q135 482 107.50 506.50Q80 531 65 553Q50 575 44.50 598Q39 621 39 649Q38 710 60.50 741.50Q83 773 129.50 786.50Q176 800 246.50 801Q317 802 412 802Q445 802 487.50 802Q530 802 573.50 802Q617 802 656.50 803Q696 804 723 806Q748 785 748 765.50Q748 746 739 716Q730 692 726 675Q722 658 720 645Q718 632 718 619.50Q718 607 718 592Q718 577 718.50 537Q719 497 720 443.50Q721 390 722 330Q723 270 724 215.50Q725 161 725.50 119Q726 77 726 59Q726 41 723.50 30Q721 19 711 12.50Q701 6 679.50 3.50Q658 1 621-1L512 1Q489 1 477 5Q465 9 465 20Q465 20 471.50 34Q478 48 486.50 68.50Q495 89 502.50 112Q510 135 511 155Q511 164 512 194Q513 224 513.50 257.50Q514 291 514.50 321Q515 351 515 360Q515 459 511.50 529Q508 599 496.50 643.50Q485 688 462.50 708.50Q440 729 403 729Q349 729 319.50 690.50Q290 652 290 589Q290 567 296 546Q302 525 313 509Q324 493 338.50 483Q353 473 370 473Q374 473 382 474Q390 475 399 476.50Q408 478 416.50 479.50Q425 481 431 481Q472 481 472 422Q472 379 448 330Q424 281 385.50 233Q347 185 298.50 141Q250 97 201 63Q152 29 107 7.50Q62-14 31-16L10-2L10-2Z"  horiz-adv-x="761" vert-adv-y="1000"  />

      
      <glyph glyph-name="uni042E" unicode="&#x042E;" d="M285 486Q305 509 328 519Q351 529 374 527Q389 669 465 733Q550 803 755 803Q954 803 1037 743Q1134 673 1134 479Q1134 291 1040 155Q933-1 755-1Q675-1 610 30Q545 61 498 114Q451 167 422.50 237Q394 307 387 385Q385 390 372.50 395.50Q360 401 342.50 398Q325 395 307 378.50Q289 362 277 323L277 171Q277 140 296 92Q315 44 315 23Q315 15 303.50 7.50Q292 0 284 0L83 0Q41 0 29 13Q32 17 38 40Q40 50 43 63Q46 76 50 93Q63 157 69.50 198.50Q76 240 76 260L76 487Q76 645 56 716Q55 719 51 726.50Q47 734 39 747Q25 773 25 777Q25 786 35.50 794.50Q46 803 55 803L287 803Q316 803 316 773Q316 764 298 733Q281 701 281 680L281 582Q281 580 281 564.50Q281 549 281.50 531.50Q282 514 282.50 500Q283 486 285 486M895 443Q895 562 877 627Q845 738 756 738Q606 738 606 450Q606 384 611.50 328Q617 272 628 226Q664 73 753 73Q831 73 869 225Q882 277 888.50 331Q895 385 895 443M25 23Q25 12 27 12Q28 12 29 13Q25 17 25 23Z"  horiz-adv-x="1160" vert-adv-y="1000"  />

      
      <glyph glyph-name="uni042D" unicode="&#x042D;" d="M432 424Q440 496 430.50 548Q421 600 408 635Q389 683 356 705.50Q323 728 281 729Q244 729 218.50 719Q193 709 174 693Q155 677 140.50 658Q126 639 111.50 623Q97 607 79.50 596Q62 585 37 585Q28 585 22.50 601.50Q17 618 15 642Q13 666 15.50 694.50Q18 723 24 746Q30 769 41 783.50Q52 798 67 795Q68 796 91 796Q102 796 117 796Q132 796 152 797L401 797Q541 797 612 708Q676 629 676 482Q676 282 565 146Q446 0 251 0Q195 0 122 12Q22 27 22 53Q22 58 31.50 65Q41 72 46 72Q97 72 148 72Q199 72 245 84Q276 93 305 113Q334 133 356 160.50Q378 188 392 221.50Q406 255 407 290Q408 317 401.50 340Q395 363 382.50 380Q370 397 353.50 406.50Q337 416 318 416Q304 416 291.50 405Q279 394 272 378Q265 362 264.50 343.50Q264 325 273 310Q245 310 221 320Q197 330 179.50 347Q162 364 152 388Q142 412 142 440Q142 482 163 509Q184 536 215 548Q246 560 281.50 557Q317 554 347 536Q359 529 372 515Q385 501 397 484.50Q409 468 418.50 451.50Q428 435 432 424Z"  horiz-adv-x="697" vert-adv-y="1000"  />

      
      <glyph glyph-name="uni0423" unicode="&#x0423;" d="M490 195Q473 159 445.50 118Q418 77 383.50 45.50Q349 14 308.50-1Q268-16 225 0Q164 22 145 75Q127 122 153 186Q170 231 205 242Q217 242 220 237.50Q223 233 223 224Q223 215 223 202.50Q223 190 230 175Q239 154 255 142Q271 130 290 128.50Q309 127 330 138Q351 149 372 174Q352 222 319 279Q286 336 247.50 395Q209 454 169.50 512Q130 570 98 620Q66 670 46 709Q26 748 26 769Q26 801 74 801L286 801Q293 801 306 802Q319 803 326 803Q366 803 366 771Q366 758 351 728Q344 715 339.50 705Q335 695 338 687Q354 645 394 569Q434 493 493 391Q519 445 540.50 490.50Q562 536 570 556Q582 590 587.50 613.50Q593 637 594.50 653.50Q596 670 596 680.50Q596 691 596 700Q597 716 589.50 733Q582 750 577.50 764.50Q573 779 577 789Q581 799 604 801Q681 803 722 803Q763 803 776.50 796.50Q790 790 781 775.50Q772 761 750 734Q727 707 697 644Q667 581 633 503Q599 425 562.50 343Q526 261 490 195Z"  horiz-adv-x="803" vert-adv-y="1000"  />

      
      <glyph glyph-name="uni041B" unicode="&#x041B;" d="M164 291Q129 203 129 101Q129 76 141.50 57Q154 38 158.50 25.50Q163 13 148.50 6.50Q134 0 81 0Q46 0 33 13.50Q20 27 20 62Q20 138 77 303Q86 329 109 388.50Q132 448 169 545Q221 676 221 702Q221 710 207 736Q193 762 193 769Q193 792 234 795.50Q275 799 367 799L404 799Q427 799 456 798Q485 797 507 797L544 797L586 797Q595 797 602.50 797Q610 797 615 798L636 782Q636 769 624 745Q613 720 613 709Q613 673 657 543Q731 330 735 313Q782 158 782 80Q782 19 729 4Q717 0 622 0Q596 0 572 1.50Q548 3 525 7L515 26L515 28Q514 38 536 66Q559 95 559 106Q559 205 498 388Q498 392 492.50 410Q487 428 478.50 452.50Q470 477 460 506Q450 535 440 561Q430 587 421.50 607.50Q413 628 408 636Q376 689 354 689Q323 689 277 611Q266 593 252 560Q238 527 223 484.50Q208 442 193 392.50Q178 343 164 291Z"  horiz-adv-x="801" vert-adv-y="1000"  />

      
      <glyph glyph-name="uni0425" unicode="&#x0425;" d="M792 49L778 14Q761 0 702 0L511 0L486 17L482 32Q482 42 496 62Q511 81 511 90Q511 151 328 330L314 328Q292 309 269.50 283Q247 257 223 224Q166 146 166 107Q166 92 185 67Q204 42 204 30Q204-1 128-1Q124-1 104-1Q84-1 46 0L25 22Q25 88 79 169Q89 184 114 215.50Q139 247 180 295Q200 318 222 344Q244 370 268 398Q263 411 236 444Q229 452 219.50 463Q210 474 198 487Q20 680 20 750Q20 780 46 801Q130 804 299 804L316 781Q316 767 306 746Q297 723 297 712Q297 690 352 626Q407 563 428 561Q460 571 519 633Q578 695 578 726Q578 732 575.50 740.50Q573 749 570 758Q567 767 564.50 775.50Q562 784 562 790L579 804Q608 806 630 807Q652 808 668 808Q711 808 738 801Q754 783 756 762Q742 740 705.50 704Q669 668 609 616Q498 521 484 486L659 272Q775 131 792 49Z"  horiz-adv-x="812" vert-adv-y="1000"  />

      
      <glyph glyph-name="uni0424" unicode="&#x0424;" d="M427-1Q418-1 404.50 7.50Q391 16 391 24Q391 32 407 63Q425 97 428 108Q441 146 441 196L440 579Q378 595 341 580Q304 565 283.50 530.50Q263 496 257 448Q251 400 253 349Q255 315 264.50 284.50Q274 254 293 233.50Q312 213 341 205Q370 197 412 207L410 209Q421 209 426.50 203Q432 197 434 188Q433 177 419 167.50Q405 158 386 151Q367 144 348.50 140Q330 136 320 137Q243 131 185.50 150Q128 169 90.50 206Q53 243 36 295.50Q19 348 23 409Q20 474 38.50 519Q57 564 90 593Q123 622 166.50 636Q210 650 257 653Q304 656 351.50 650.50Q399 645 440 634L440 640Q440 663 434 686.50Q428 710 417 730Q393 770 393 774Q393 803 435 803L655 803Q697 803 697 774Q697 770 673 730Q662 710 656 686.50Q650 663 650 640L650 634Q690 645 737.50 650.50Q785 656 832.50 653Q880 650 923 636Q966 622 999 593Q1032 564 1050.50 519Q1069 474 1067 409Q1068 350 1048.50 297.50Q1029 245 990.50 207Q952 169 896 149.50Q840 130 770 137Q760 136 741.50 140Q723 144 704 151Q685 158 671 167.50Q657 177 656 188Q658 197 663.50 203Q669 209 680 209L678 207Q720 197 749 205Q778 213 797 233.50Q816 254 825.50 284.50Q835 315 837 349Q838 400 832 448Q826 496 806 530.50Q786 565 748.50 580Q711 595 650 579L649 196Q649 146 662 108Q665 97 683 63Q699 32 699 24Q699 16 685.50 7.50Q672-1 663-1L427-1Z"  horiz-adv-x="1092" vert-adv-y="1000"  />

      
      <glyph glyph-name="uni0426" unicode="&#x0426;" d="M581 1L581 3Q576 2 571 2Q566 2 561 2Q495-2 441-1Q387 0 344 0Q201 0 113 82Q19 166 19 306Q19 373 52 501Q86 630 86 684Q86 724 57 759L76 794Q108 798 154.50 800Q201 802 264 802L294 802L323 781Q323 722 294 589Q265 456 265 397Q265 67 455 67Q531 67 531 203Q531 213 529.50 236Q528 259 528 277L528 384Q528 404 528 421Q528 438 527 454Q521 693 450 759Q450 807 537 807Q547 807 566.50 806Q586 805 595 805L692 804Q735 779 735 605Q735 594 734.50 570Q734 546 733 520Q732 494 731.50 470Q731 446 731 435Q731 273 734 231Q737 185 743.50 147.50Q750 110 761 85Q818 88 833 84Q854 76 869 45Q882 21 885-9Q892-71 855-117Q817-164 755-172Q728-175 701-170Q664-164 663-143Q662-136 679-122Q692-111 699.50-104Q707-97 711-92Q727-73 724-47Q719-4 679 4Q656 10 605 3Q604 3 598 2.50Q592 2 581 1Z"  horiz-adv-x="902" vert-adv-y="1000"  />

      
      <glyph glyph-name="uni0427" unicode="&#x0427;" d="M495 199L494 285Q461 275 409.50 270Q358 265 301 269Q244 273 188.50 289Q133 305 92 337Q51 369 31.50 420Q12 471 27 545Q37 587 45 626.50Q53 666 53 686Q53 705 41.50 721Q30 737 21.50 750.50Q13 764 14.50 775.50Q16 787 43 798Q75 802 121.50 804Q168 806 231 806L261 806Q278 807 284 795.50Q290 784 288.50 763Q287 742 280.50 714Q274 686 267 653Q246 564 250 503.50Q254 443 277 405.50Q300 368 338.50 351.50Q377 335 425 335Q501 335 501 471Q498 590 478.50 658Q459 726 424 759Q424 807 511 807Q521 807 540.50 806Q560 805 569 805L666 804Q687 804 696.50 789.50Q706 775 708.50 748.50Q711 722 710 685Q709 648 709 605Q709 594 708.50 570Q708 546 707 520Q706 494 705.50 470Q705 446 705 435Q705 273 708 231Q708 148 721 109Q724 98 742 64Q758 33 758 25Q758 17 744.50 8.50Q731 0 722 0L485 0Q475 0 461 9Q447 18 447 27Q462 66 470 87Q478 108 479 111Q495 159 495 199Z"  horiz-adv-x="777" vert-adv-y="1000"  />

      
      <glyph glyph-name="uni0429" unicode="&#x0429;" d="M294 589Q265 456 265 397Q265 232 304.50 149.50Q344 67 439 67Q515 67 515 203Q515 213 513.50 236Q512 259 512 277L512 384Q512 390 512 410.50Q512 431 512 458.50Q512 486 512 517Q512 548 512 574.50Q512 601 511.50 621Q511 641 511 646Q511 689 488 733Q465 777 465 781Q465 805 509 805L723 805Q765 805 765 776Q765 772 741 732Q718 691 718 646Q718 619 717.50 578Q717 537 716.50 490.50Q716 444 715.50 396Q715 348 715 308.50Q715 269 715 241Q715 213 715 206Q715 70 794 70L856 70Q894 70 917 105.50Q940 141 940 210Q940 220 941 238.50Q942 257 942 275L942 382Q942 402 942 419Q942 436 941 452Q935 691 864 757Q864 805 951 805Q961 805 980.50 804Q1000 803 1009 803L1106 802Q1149 777 1149 603Q1149 592 1148.50 568Q1148 544 1147 518Q1146 492 1145.50 468Q1145 444 1145 433Q1145 271 1148 229Q1151 183 1157.50 145.50Q1164 108 1175 83Q1232 86 1247 82Q1268 74 1283 43Q1296 19 1299-11Q1306-73 1269-119Q1231-166 1169-174Q1142-177 1115-172Q1078-166 1077-145Q1076-138 1093-124Q1106-113 1113.50-106Q1121-99 1125-94Q1141-75 1138-49Q1133-6 1093 2Q1070 8 1019 1Q1016 0 982.50 0Q949 0 900.50 0Q852 0 795.50 0.50Q739 1 689.50 1.50Q640 2 605 2.50Q570 3 565 3Q560 2 555 2Q550 2 545 2Q479-2 433-1Q387 0 344 0Q201 0 113 82Q19 166 19 306Q19 373 52 501Q86 630 86 684Q83 701 70 718.50Q57 736 48.50 751Q40 766 43.50 777Q47 788 76 794Q108 798 154.50 800Q201 802 264 802L294 802Q315 803 320.50 782Q326 761 322.50 729Q319 697 310 659.50Q301 622 294 589Z"  horiz-adv-x="1321" vert-adv-y="1000"  />

      
      <glyph glyph-name="uni0428" unicode="&#x0428;" d="M1155 1Q1151 0 1123.50-0.50Q1096-1 1054-1Q1012-1 959-1Q906-1 851-0.50Q796 0 743 0.50Q690 1 647.50 1.50Q605 2 577 2Q549 2 545 2Q479-2 433-1Q387 0 344 0Q201 0 113 82Q19 166 19 306Q19 373 52 501Q69 567 80 612.50Q91 658 86 684Q83 701 70 718.50Q57 736 48.50 751Q40 766 43.50 777Q47 788 76 794Q108 798 154.50 800Q201 802 264 802L294 802Q315 803 320.50 782Q326 761 322.50 729Q319 697 310 659.50Q301 622 294 589Q265 456 265 397Q265 232 304.50 149.50Q344 67 439 67Q515 67 515 203Q515 213 513.50 236Q512 259 512 277L512 384Q512 390 512 410.50Q512 431 512 458.50Q512 486 512 517Q512 548 512 574.50Q512 601 511.50 621Q511 641 511 646Q511 689 488 733Q465 777 465 781Q465 805 509 805L723 805Q765 805 765 776Q765 772 741 732Q718 691 718 646Q718 619 717.50 578Q717 537 716.50 490.50Q716 444 715.50 396Q715 348 715 308.50Q715 269 715 241Q715 213 715 206Q715 70 794 70L856 70Q894 70 917 105.50Q940 141 940 210Q940 220 941 238.50Q942 257 942 275L942 382Q942 402 942 419Q942 436 941 452Q935 691 864 757Q864 805 951 805Q961 805 980.50 804Q1000 803 1009 803L1106 802Q1125 802 1134 787.50Q1143 773 1146.50 746.50Q1150 720 1149.50 683Q1149 646 1149 603Q1149 592 1148.50 568Q1148 544 1147 518Q1146 492 1145.50 468Q1145 444 1145 433Q1145 392 1145.50 348.50Q1146 305 1146.50 266Q1147 227 1148 198Q1149 169 1150 159Q1150 114 1173 74Q1197 34 1197 30Q1197 1 1155 1Z"  horiz-adv-x="1220" vert-adv-y="1000"  />

      
      <glyph glyph-name="uni042C" unicode="&#x042C;" d="M472 218Q472 264 453.50 296.50Q435 329 405.50 352.50Q376 376 339.50 392.50Q303 409 267 422Q256 425 256 367L256 190Q256 146 274 112Q296 70 336 70Q395 70 433 114Q472 157 472 218M57 603Q59 688 36 732Q13 776 13 780Q13 804 57 804L277 804Q319 804 319 775Q319 771 295 731Q272 690 272 645Q269 640 268 621.50Q267 603 267.50 582.50Q268 562 270 545Q272 528 276 526Q317 501 365.50 484.50Q414 468 461.50 452Q509 436 553.50 417.50Q598 399 632 370.50Q666 342 686.50 300Q707 258 707 196Q707 102 639 49Q578 0 481 0L77 0Q63-2 56 9.50Q49 21 46.50 40.50Q44 60 44.50 85.50Q45 111 47.50 139Q50 167 52 194.50Q54 222 54 245Q54 315 57 456Q58 491 58 512Q58 533 58 547Q58 561 57.50 573Q57 585 57 603Z"  horiz-adv-x="726" vert-adv-y="1000"  />

      
      <glyph glyph-name="uni042B" unicode="&#x042B;" d="M472 218Q472 264 453.50 296.50Q435 329 405.50 352.50Q376 376 339.50 392.50Q303 409 267 422Q256 425 256 367L256 190Q256 146 274 112Q296 70 336 70Q395 70 433 114Q472 157 472 218M57 603Q59 688 36 732Q13 776 13 780Q13 804 57 804L277 804Q319 804 319 775Q319 771 295 731Q272 690 272 645Q269 640 268 621.50Q267 603 267.50 582.50Q268 562 270 545Q272 528 276 526Q317 501 365.50 484.50Q414 468 461.50 452Q509 436 553.50 417.50Q598 399 632 370.50Q666 342 686.50 300Q707 258 707 196Q707 102 639 49Q578 0 481 0L77 0Q63-2 56 9.50Q49 21 46.50 40.50Q44 60 44.50 85.50Q45 111 47.50 139Q50 167 52 194.50Q54 222 54 245Q54 315 57 456Q58 491 58 512Q58 533 58 547Q58 561 57.50 573Q57 585 57 603M1035 25Q1035 17 1021.50 8.50Q1008 0 999 0L763 0Q753 0 739 9Q725 18 725 27Q740 66 748 87Q756 108 757 111Q773 159 773 199L773 645Q773 688 750 732Q727 776 727 780Q727 804 771 804L991 804Q1033 804 1033 775Q1033 771 1009 731Q986 690 986 645L985 197Q985 148 998 109Q1001 98 1019 64Q1035 33 1035 25Z"  horiz-adv-x="1059" vert-adv-y="1000"  />

      
      <glyph glyph-name="uni042A" unicode="&#x042A;" d="M668 218Q668 264 649.50 296.50Q631 329 601.50 352.50Q572 376 535.50 392.50Q499 409 463 422Q452 425 452 367L452 190Q452 146 470 112Q492 70 532 70Q591 70 629 114Q668 157 668 218M473 804Q515 804 515 775Q515 771 491 731Q468 690 468 645Q465 640 464 621.50Q463 603 463.50 582.50Q464 562 466 545Q468 528 472 526Q513 501 561.50 484.50Q610 468 657.50 452Q705 436 749.50 417.50Q794 399 828 370.50Q862 342 882.50 300Q903 258 903 196Q903 102 835 49Q774 0 677 0L273 0Q259-2 252 9.50Q245 21 242.50 40.50Q240 60 240.50 85.50Q241 111 243.50 139Q246 167 248 194.50Q250 222 250 245Q250 315 253 456Q254 526 253.50 571Q253 616 253 651Q253 710 211 710Q160 710 119 675Q99 657 70 609Q49 574 38 574Q15 574 15 638Q15 680 32 736Q54 803 89 803L473 804Z"  horiz-adv-x="924" vert-adv-y="1000"  />

      
      </font>
</defs>
</svg>
